<?xml version="1.0" encoding="UTF-8"?>
<svg width="40px" height="40px" viewBox="0 0 40 40" version="1.1" xmlns="http://www.w3.org/2000/svg" xmlns:xlink="http://www.w3.org/1999/xlink">
    <!-- Generator: Sketch 57.1 (83088) - https://sketch.com -->
    <title>browser-safari</title>
    <desc>Created with Sketch.</desc>
    <defs>
        <linearGradient x1="50%" y1="100%" x2="50%" y2="0%" id="linearGradient-1">
            <stop stop-color="#DBDBDA" offset="25%"></stop>
            <stop stop-color="#FFFFFF" offset="100%"></stop>
        </linearGradient>
        <radialGradient cx="57.025%" cy="39.017%" fx="57.025%" fy="39.017%" r="61.032%" id="radialGradient-2">
            <stop stop-color="#2ABCE1" offset="0%"></stop>
            <stop stop-color="#2ABBE1" offset="11.363%"></stop>
            <stop stop-color="#3375F8" offset="100%"></stop>
        </radialGradient>
        <linearGradient x1="49.05%" y1="35.703%" x2="25.713%" y2="77.572%" id="linearGradient-3">
            <stop stop-color="#000000" stop-opacity="0" offset="0%"></stop>
            <stop stop-color="#000000" offset="100%"></stop>
        </linearGradient>
    </defs>
    <g id="页面1" stroke="none" stroke-width="1" fill="none" fill-rule="evenodd">
        <g id="browser-safari" fill-rule="nonzero">
            <circle id="椭圆形" fill="url(#linearGradient-1)" cx="19.9989678" cy="19.9989678" r="19.9989678"></circle>
            <circle id="椭圆形" fill="url(#radialGradient-2)" cx="19.9989678" cy="19.9989678" r="18.4990452"></circle>
            <g id="编组" transform="translate(1.595531, 1.472279)">
                <path d="M18.4347259,4.52741149 C18.3097324,4.52741149 18.2003832,4.43370665 18.2003832,4.3087131 L18.2003832,1.04323648 C18.2003832,0.918242929 18.3097324,0.824538088 18.4347259,0.824538088 C18.5597195,0.824538088 18.6690687,0.918242929 18.6690687,1.04323648 L18.6690687,4.3087131 C18.6534243,4.43370665 18.5597195,4.52741149 18.4347259,4.52741149 Z" id="路径" fill="#F3F3F3"></path>
                <path d="M18.4347259,4.54305584 C18.294088,4.54305584 18.1847389,4.43370665 18.1847389,4.3087131 L18.1847389,1.04323648 C18.1847389,0.918242929 18.294088,0.808893735 18.4347259,0.808893735 C18.5753639,0.808893735 18.684713,0.918242929 18.684713,1.04323648 L18.684713,4.3087131 C18.684713,4.43370665 18.5597195,4.54305584 18.4347259,4.54305584 Z M18.4347259,0.84002116 C18.3253768,0.84002116 18.2160276,0.933887283 18.2160276,1.04323648 L18.2160276,4.3087131 C18.2160276,4.41806229 18.3097324,4.51192842 18.4347259,4.51192842 C18.5440751,4.51192842 18.6534243,4.41806229 18.6534243,4.3087131 L18.6534243,1.04323648 C18.6379413,0.933887283 18.5440751,0.84002116 18.4347259,0.84002116 Z" id="形状" fill="#FFFFFF"></path>
                <path d="M19.9972259,2.77750181 C19.8722324,2.76185745 19.7785276,2.66815261 19.7785276,2.54315906 L19.8878768,1.09000826 C19.9033598,0.965175991 20.0128703,0.871309868 20.1378639,0.886954222 C20.2628574,0.902598576 20.3565622,0.996464699 20.3565622,1.12145825 L20.247213,2.57444777 C20.2315687,2.69944132 20.1222195,2.79314616 19.9972259,2.77766309 L19.9972259,2.77750181 Z" id="路径" fill="#F3F3F3"></path>
                <path d="M19.9972259,2.79314616 C19.856588,2.77750181 19.7628832,2.66815261 19.7628832,2.54315906 L19.8722324,1.09000826 C19.8878768,0.965175991 19.9972259,0.855826796 20.1378639,0.871309868 C20.2783405,0.886954222 20.3722066,0.996464699 20.3722066,1.12129697 L20.2628574,2.57444777 C20.247213,2.71508567 20.1378639,2.80879051 19.9972259,2.79314616 Z M20.1378639,0.902598576 C20.0285147,0.902598576 19.9190042,0.980820345 19.9190042,1.09016954 L19.809655,2.54332034 C19.809655,2.65250826 19.8878768,2.74637438 20.0128703,2.76185745 C20.1222195,2.76185745 20.2315687,2.68379697 20.2315687,2.57444777 L20.3409179,1.12129697 C20.3409179,1.01194777 20.247213,0.918242929 20.1377026,0.902598576 L20.1378639,0.902598576 Z" id="形状" fill="#FFFFFF"></path>
                <path d="M21.1691009,4.80868729 C21.0439461,4.77739859 20.9658856,4.66804939 20.98153,4.54305584 L21.6221421,1.33999536 C21.6534308,1.21516309 21.76278,1.13694132 21.8877735,1.16823003 C22.0127671,1.19951873 22.0908276,1.30886793 22.0751832,1.43386148 L21.4345711,4.63692197 C21.4189268,4.74610988 21.2939332,4.82433165 21.1689397,4.80868729 L21.1691009,4.80868729 Z" id="路径" fill="#F3F3F3"></path>
                <path d="M21.1691009,4.82433165 C21.0283018,4.79304294 20.9502413,4.66804939 20.9658856,4.54305584 L21.6064977,1.33999536 C21.6377864,1.21516309 21.76278,1.12129697 21.9032566,1.15258567 C22.0438945,1.18387438 22.1221163,1.30886793 22.1064719,1.43386148 L21.4658598,4.63692197 C21.4345711,4.76175423 21.3095776,4.839976 21.1691009,4.82433165 Z M21.9032566,1.18387438 C21.7939074,1.16823003 21.6845582,1.23064616 21.6532695,1.34015664 L21.0128187,4.54321712 C20.9971743,4.65240504 21.0595905,4.76175423 21.184584,4.79320422 C21.2939332,4.80868729 21.4032824,4.74610988 21.4345711,4.63676068 L22.0751832,1.43386148 C22.0908276,1.30886793 22.0127671,1.21516309 21.9032566,1.18387438 Z" id="形状" fill="#FFFFFF"></path>
                <path d="M23.0438429,3.40246955 C22.9837442,3.38798417 22.9318706,3.35019862 22.8996519,3.29743852 C22.8674331,3.24467843 22.8575131,3.18127329 22.8720776,3.12119374 L23.2627026,1.71513728 C23.29383,1.59014373 23.4188235,1.52756632 23.5438171,1.55885503 C23.6688106,1.59014373 23.7470324,1.71513728 23.7157437,1.84013083 L23.3251187,3.24634858 C23.29383,3.37118084 23.1688364,3.43375826 23.0438429,3.40246955 Z" id="路径" fill="#F3F3F3"></path>
                <path d="M23.0438429,3.4181139 C22.9188493,3.3868252 22.8251445,3.24618729 22.8720776,3.12135503 L23.2627026,1.714976 C23.29383,1.59014373 23.4344679,1.51192197 23.5594614,1.54321067 C23.684455,1.57449938 23.7781598,1.71513728 23.7313881,1.83996955 L23.3407631,3.24634858 C23.3094743,3.37118084 23.1844808,3.44940261 23.0440042,3.4181139 L23.0438429,3.4181139 Z M23.5594614,1.59014373 C23.4501123,1.55885503 23.3251187,1.62143244 23.29383,1.73078164 L22.9033663,3.1368381 C22.8720776,3.24618729 22.9344937,3.35569777 23.0594873,3.3868252 C23.1688364,3.4181139 23.29383,3.35569777 23.3251187,3.24634858 L23.7157437,1.83996955 C23.7313881,1.73078164 23.6689719,1.62143244 23.5594614,1.58998245 L23.5594614,1.59014373 Z" id="形状" fill="#FFFFFF"></path>
                <path d="M23.8094485,5.60558165 C23.684455,5.55864859 23.6376832,5.41801068 23.684455,5.30866149 L24.9343905,2.29317197 C24.9811623,2.18382277 25.1219614,2.12124536 25.2311494,2.18382277 C25.3563042,2.23059455 25.4032373,2.37139373 25.3563042,2.48058165 L24.1063687,5.49607117 C24.0595969,5.60558165 23.9187977,5.66799778 23.8096098,5.60558165 L23.8094485,5.60558165 Z" id="路径" fill="#F3F3F3"></path>
                <path d="M23.8094485,5.621226 C23.6844517,5.57358899 23.6215552,5.43380314 23.6688106,5.30866149 L24.9187461,2.29317197 C24.9656792,2.16817842 25.1063171,2.12124536 25.246955,2.16817842 C25.3719519,2.21581543 25.4348483,2.35560127 25.3875929,2.48074293 L24.1376574,5.49623245 C24.07508,5.621226 23.9344421,5.68364213 23.8094485,5.621226 L23.8094485,5.621226 Z M25.2313106,2.19946712 C25.1219614,2.15269534 24.9969679,2.19946712 24.9500348,2.30881632 L23.7000993,5.32430584 C23.6533276,5.43365504 23.7157437,5.54300423 23.8250929,5.58993729 C23.9344421,5.63670907 24.0594356,5.58993729 24.1063687,5.4805881 L25.3563042,2.46509858 C25.3875929,2.37123245 25.3406598,2.2462389 25.2313106,2.19946712 Z" id="形状" fill="#FFFFFF"></path>
                <path d="M25.9188558,4.60563326 C25.8093453,4.54305584 25.7624123,4.41806229 25.8093453,4.3087131 L26.4656018,3.01200583 C26.5280179,2.90249536 26.6530115,2.85556229 26.7781663,2.91813971 C26.8875155,2.98071712 26.9342873,3.10571067 26.8875155,3.21489859 L26.2310977,4.51176713 C26.1686816,4.62111633 26.0436881,4.66821067 25.9186945,4.60563326 L25.9188558,4.60563326 Z" id="路径" fill="#F3F3F3"></path>
                <path d="M25.9188558,4.62127761 C25.793701,4.5587002 25.7469292,4.41806229 25.8093453,4.29306874 L26.4656018,2.99636148 C26.5280179,2.87120665 26.6688171,2.82443487 26.7936494,2.886851 C26.9186429,2.94942842 26.965576,3.09006632 26.9029986,3.21505987 L26.2469034,4.51176713 C26.184326,4.63676068 26.0436881,4.68369374 25.9186945,4.62111633 L25.9188558,4.62127761 Z M26.7781663,2.91813971 C26.6686558,2.87136793 26.5436623,2.90249536 26.4968905,3.01184455 L25.840634,4.3087131 C25.7938623,4.40241794 25.840634,4.52741149 25.9343389,4.5899889 C26.0436881,4.63676068 26.1686816,4.60563326 26.2156147,4.49628406 L26.8718711,3.19941551 C26.9186429,3.10571067 26.8718711,2.98071712 26.7781663,2.91813971 Z" id="形状" fill="#FFFFFF"></path>
                <path d="M26.231259,6.91793327 C26.1219098,6.83987278 26.0906211,6.69923488 26.1686816,6.60553004 L27.9811687,3.90244374 C28.0435848,3.79309455 28.184384,3.7774502 28.2935719,3.84002761 C28.4030824,3.9180881 28.4342098,4.058726 28.3561494,4.15243084 L26.5436623,6.85551713 C26.4812461,6.96486633 26.3406082,6.99615504 26.231259,6.91793327 Z" id="路径" fill="#F3F3F3"></path>
                <path d="M26.231259,6.93357762 C26.1219098,6.85551713 26.0906211,6.69923488 26.1531985,6.58988568 L27.9655244,3.88679939 C28.0435848,3.7774502 28.1842227,3.74616149 28.3092163,3.82438326 C28.4185655,3.90244374 28.4498542,4.058726 28.3874381,4.1680752 L26.574951,6.87116149 C26.4968905,6.98051068 26.3406082,7.01163811 26.231259,6.93357762 Z M28.2935719,3.85567197 C28.2000284,3.79309455 28.0592292,3.8087389 27.9968131,3.90244374 L26.184326,6.60553004 C26.1219098,6.6990736 26.1530373,6.82422843 26.2469034,6.88664456 C26.3406082,6.94922198 26.4812461,6.93357762 26.5436623,6.83987278 L28.3561494,4.15243084 C28.4185655,4.058726 28.3874381,3.9180881 28.2935719,3.85567197 Z" id="形状" fill="#FFFFFF"></path>
                <path d="M28.5122703,6.33989859 C28.4187268,6.26167682 28.3874381,6.12103891 28.4654986,6.02733407 L29.3717421,4.88674778 C29.4498026,4.79320422 29.5904405,4.77739859 29.6841453,4.85562036 C29.7780115,4.93368084 29.8091389,5.07431874 29.7309171,5.16802359 L28.8248348,6.30860988 C28.7467744,6.40231472 28.6061365,6.41795907 28.5124316,6.33989859 L28.5122703,6.33989859 Z" id="路径" fill="#F3F3F3"></path>
                <path d="M28.4967873,6.35554294 C28.3874381,6.27732117 28.3717937,6.12103891 28.4500155,6.01168972 L29.3560977,4.87126471 C29.4341582,4.76175423 29.5904405,4.74610988 29.6997897,4.839976 C29.8091389,4.91803649 29.8247832,5.07431874 29.7465615,5.18366794 L28.8404792,6.32425423 C28.7624187,6.43360343 28.6061365,6.44924778 28.4967873,6.35554294 L28.4967873,6.35554294 Z M29.668501,4.87110343 C29.5749574,4.79304294 29.4498026,4.80868729 29.3717421,4.90239213 L28.4654986,6.04297843 C28.4030824,6.13668327 28.4187268,6.26167682 28.5122703,6.3397373 C28.6061365,6.41795907 28.73113,6.40231472 28.8091905,6.30860988 L29.715434,5.16802359 C29.7780115,5.07431874 29.7622058,4.93368084 29.6686623,4.87126471 L29.668501,4.87110343 Z" id="形状" fill="#FFFFFF"></path>
                <path d="M28.3561494,8.6834873 C28.2624445,8.58978246 28.2624445,8.44914456 28.3561494,8.37092279 L30.6684494,6.07426713 C30.7623155,5.98056229 30.9027921,5.99604537 30.9810139,6.07426713 C31.0590744,6.15232762 31.0747187,6.30860988 30.9810139,6.38667037 L28.6843582,8.6834873 C28.5904921,8.77719214 28.4498542,8.77719214 28.3561494,8.6834873 L28.3561494,8.6834873 Z" id="路径" fill="#F3F3F3"></path>
                <path d="M28.340505,8.69913166 C28.2467517,8.60374839 28.2467517,8.45082298 28.340505,8.35543972 L30.652805,6.05862278 C30.7482078,5.96476378 30.9012555,5.96476378 30.9966582,6.05862278 C31.0904115,6.15400605 31.0904115,6.30693145 30.9966582,6.40231472 L28.6841969,8.69897038 C28.5888137,8.79272365 28.4358883,8.79272365 28.340505,8.69897038 L28.340505,8.69913166 Z M30.9810139,6.07426713 C30.9029534,5.99604537 30.7623155,5.99604537 30.684255,6.07426713 L28.3717937,8.37092279 C28.2935719,8.44914456 28.2935719,8.58978246 28.3717937,8.66784295 C28.4498542,8.74606472 28.5904921,8.74606472 28.6685526,8.66784295 L30.9810139,6.37118729 C31.0590744,6.29296552 31.0590744,6.16797198 30.9810139,6.07426713 Z" id="形状" fill="#FFFFFF"></path>
                <path d="M30.6997381,8.55849376 C30.6216776,8.46478891 30.6216776,8.32415101 30.7153824,8.24592924 L31.82468,7.30855827 C31.9183849,7.23049778 32.0590228,7.24598085 32.1372445,7.33984698 C32.215305,7.43355182 32.215305,7.57418972 32.1216002,7.65225021 L31.0123026,8.58978246 C30.9184365,8.66784295 30.7777986,8.6521986 30.6997381,8.55849376 Z" id="路径" fill="#F3F3F3"></path>
                <path d="M30.6840937,8.57413811 C30.5903889,8.46478891 30.6060332,8.30850666 30.6997381,8.23044617 L31.8090357,7.29291391 C31.9027405,7.19920907 32.0590228,7.21485343 32.1527276,7.32420262 C32.2465937,7.43355182 32.2309494,7.58983407 32.1372445,7.66789456 L31.0277857,8.60542682 C30.9342421,8.69897038 30.7777986,8.6834873 30.684255,8.57413811 L30.6840937,8.57413811 Z M32.1216002,7.33984698 C32.0433784,7.24614213 31.9183849,7.24614213 31.8248413,7.30855827 L30.7153824,8.24609052 C30.6373219,8.32415101 30.6216776,8.44914456 30.6997381,8.5428494 C30.7777986,8.63655424 30.9029534,8.63655424 30.996497,8.57413811 L32.1059558,7.63660585 C32.1996607,7.55854537 32.1996607,7.43355182 32.1216002,7.33984698 Z" id="形状" fill="#FFFFFF"></path>
                <path d="M30.0747703,10.8083776 C29.9967098,10.6990284 30.0279986,10.5583905 30.1373477,10.4958131 L32.8559171,8.6834873 C32.9652663,8.62090989 33.1059042,8.6521986 33.1683203,8.74606472 C33.2465421,8.85541391 33.2152534,8.99605182 33.1059042,9.05846795 L30.3873348,10.8707938 C30.2934687,10.9333712 30.1528308,10.9020825 30.0747703,10.8083776 L30.0747703,10.8083776 Z" id="路径" fill="#F3F3F3"></path>
                <path d="M30.059126,10.8083776 C29.9810655,10.6990284 30.0123542,10.5427462 30.1217034,10.4646857 L32.8402728,8.6521986 C32.949622,8.57413811 33.1059042,8.60542682 33.1839647,8.73042037 C33.2621865,8.83976956 33.2307365,8.99605182 33.1215486,9.07395102 L30.4029792,10.8865994 C30.2934687,10.9648212 30.1373477,10.9335325 30.059126,10.8085389 L30.059126,10.8083776 Z M33.152676,8.76170907 C33.0902599,8.66784295 32.9652663,8.63655424 32.8715615,8.69913166 L30.1528308,10.5114575 C30.0592873,10.5740349 30.0278373,10.6990284 30.106059,10.8083776 C30.1684752,10.9020825 30.2934687,10.9333712 30.3873348,10.870955 L33.1059042,9.05846795 C33.1996091,8.98040746 33.2152534,8.85525263 33.152676,8.76170907 Z" id="形状" fill="#FFFFFF"></path>
                <path d="M32.402876,11.1365865 C32.3402986,11.027076 32.3715873,10.8865994 32.4809365,10.824022 L33.7465163,10.1053494 C33.8558655,10.042772 33.9965034,10.089705 34.0589195,10.198893 C34.121497,10.3084034 34.0902082,10.4488801 33.9808591,10.5114575 L32.7152792,11.2302913 C32.60593,11.2927075 32.4652921,11.2459357 32.4027147,11.1364252 L32.402876,11.1365865 Z" id="路径" fill="#F3F3F3"></path>
                <path d="M32.3872316,11.1520696 C32.3246542,11.027076 32.3559429,10.8864381 32.4652921,10.824022 L33.730872,10.1053494 C33.8402211,10.042772 33.9965034,10.089705 34.0589195,10.198893 C34.121497,10.3240478 34.0902082,10.4646857 33.9808591,10.5271018 L32.7152792,11.2459357 C32.60593,11.3083518 32.4496478,11.2614188 32.3872316,11.1520696 L32.3872316,11.1520696 Z M34.0432752,10.2146986 C33.9808591,10.1053494 33.8558655,10.0740607 33.7621607,10.1364768 L32.4965808,10.8553107 C32.402876,10.9177268 32.3715873,11.0427204 32.4183591,11.1364252 C32.4809365,11.2457744 32.60593,11.2770631 32.6996349,11.214647 L33.9652147,10.4958131 C34.0589195,10.4490413 34.0902082,10.3240478 34.0432752,10.2146986 L34.0432752,10.2146986 Z" id="形状" fill="#FFFFFF"></path>
                <path d="M31.3559945,13.2145438 C31.3092227,13.0895502 31.3559945,12.9645567 31.4809881,12.9177849 L34.4964776,11.6678494 C34.6058268,11.6209163 34.7464647,11.6833325 34.7932365,11.7926817 C34.8401695,11.9176752 34.7932365,12.0426688 34.6682429,12.0894405 L31.6529147,13.339376 C31.5434042,13.3863091 31.4029276,13.339376 31.3559945,13.2145438 Z" id="路径" fill="#F3F3F3"></path>
                <path d="M31.3403502,13.2300268 C31.2935784,13.1051946 31.3403502,12.9645567 31.4653437,12.9019793 L34.4808332,11.6520438 C34.6059284,11.6048946 34.745599,11.6677717 34.7932365,11.7926817 C34.8401695,11.9176752 34.7932365,12.0583131 34.6682429,12.1207293 L31.6529147,13.3706647 C31.5278183,13.4179369 31.3880519,13.3551213 31.3403502,13.2301881 L31.3403502,13.2300268 Z M34.7621091,11.808326 C34.715176,11.6989768 34.5901824,11.6520438 34.4964776,11.6833325 L31.4809881,12.933268 C31.3716389,12.9800397 31.3247058,13.1051946 31.3716389,13.2145438 C31.4184107,13.323893 31.5434042,13.370826 31.6372703,13.3395373 L34.6525986,12.0896018 C34.7621091,12.04283 34.8090421,11.9176752 34.7621091,11.808326 Z" id="形状" fill="#FFFFFF"></path>
                <path d="M33.5589453,13.9957938 C33.5121736,13.8706389 33.5745897,13.7458067 33.6995832,13.6988736 L35.0745123,13.2456712 C35.1838615,13.1988994 35.3244994,13.2769599 35.3557881,13.3863091 C35.4025599,13.5113026 35.3401437,13.6362962 35.2151502,13.6832293 L33.8402211,14.1364317 C33.730872,14.1832034 33.6058784,14.1207873 33.5589453,13.9956325 L33.5589453,13.9957938 Z" id="路径" fill="#F3F3F3"></path>
                <path d="M33.543301,14.0112768 C33.4965292,13.8862833 33.5589453,13.7456454 33.6997445,13.6988736 L35.0745123,13.2456712 C35.1995058,13.1988994 35.3401437,13.2769599 35.3870768,13.4021147 C35.4338486,13.526947 35.3714324,13.6675849 35.2306333,13.714518 L33.8558655,14.1677204 C33.730872,14.1988478 33.5902341,14.1362704 33.543301,14.0112768 Z M35.3557881,13.4177591 C35.3244994,13.3082486 35.1995058,13.2456712 35.0901566,13.2769599 L33.7152276,13.7301623 C33.6058784,13.7612897 33.5589453,13.8862833 33.5902341,13.9957938 C33.6215228,14.105143 33.7465163,14.1675591 33.8558655,14.1362704 L35.2307945,13.6832293 C35.3401437,13.6364575 35.3870768,13.526947 35.3557881,13.4175978 L35.3557881,13.4177591 Z" id="形状" fill="#FFFFFF"></path>
                <path d="M32.1528889,15.8550526 C32.1216002,15.7300591 32.1996607,15.6050655 32.3246542,15.5894212 L35.5277147,14.9644534 C35.652547,14.9331647 35.7620574,15.0268696 35.7931849,15.1518631 C35.8244736,15.2768567 35.7464131,15.4018502 35.6214195,15.4174946 L32.4183591,16.0424623 C32.2933655,16.0581067 32.168372,15.9800462 32.1527276,15.8550526 L32.1528889,15.8550526 Z" id="路径" fill="#F3F3F3"></path>
                <path d="M32.1216002,15.8550526 C32.0903115,15.7144147 32.1840163,15.5894212 32.3090099,15.5581325 L35.5120703,14.9331647 C35.6370639,14.901876 35.7620574,14.9957422 35.7931849,15.1363801 C35.8244736,15.2768567 35.7307687,15.4018502 35.6057752,15.4331389 L32.4027147,16.0581067 C32.2778824,16.0893954 32.1527276,15.9956905 32.1216002,15.8548914 L32.1216002,15.8550526 Z M35.7620574,15.1518631 C35.7464131,15.0425139 35.6370639,14.9644534 35.5277147,14.9800978 L32.3246542,15.6050655 C32.215305,15.6207099 32.1372445,15.7455422 32.168372,15.8550526 C32.1840163,15.9644018 32.2933655,16.0424623 32.402876,16.026818 L35.6057752,15.4018502 C35.7151244,15.3705615 35.7931849,15.2612123 35.7620574,15.1518631 Z" id="形状" fill="#FFFFFF"></path>
                <path d="M34.1527857,17.0580551 C34.1371413,16.9330615 34.2152018,16.8237123 34.3401953,16.808068 L35.7775405,16.6361414 C35.9025341,16.6206583 36.0120445,16.7143631 36.0275276,16.8393567 C36.043172,16.9643502 35.9651115,17.0736994 35.8401179,17.0893438 L34.4026115,17.2611091 C34.2932623,17.2767535 34.1682687,17.1830486 34.1526244,17.0580551 L34.1527857,17.0580551 Z" id="路径" fill="#F3F3F3"></path>
                <path d="M34.1371413,17.0580551 C34.121497,16.9174172 34.2152018,16.7924236 34.3401953,16.7767793 L35.7775405,16.6050139 C35.9025341,16.5893696 36.0275276,16.6830744 36.043172,16.8237123 C36.0588163,16.9643502 35.9651115,17.0893438 35.8401179,17.1049881 L34.4026115,17.2767535 C34.2777792,17.2923978 34.1526244,17.198693 34.1371413,17.0580551 Z M36.0275276,16.8393567 C36.0120445,16.7300075 35.9026953,16.6361414 35.7931849,16.6517857 L34.3558397,16.8237123 C34.2464905,16.8393567 34.1682687,16.9487059 34.1839131,17.0580551 C34.1995574,17.1674043 34.3089066,17.2612704 34.4182558,17.245626 L35.8557623,17.0736994 C35.9651115,17.0580551 36.043172,16.9487059 36.0276889,16.8393567 L36.0275276,16.8393567 Z" id="形状" fill="#FFFFFF"></path>
                <path d="M32.402876,18.573622 C32.402876,18.4486285 32.4964195,18.3392793 32.6215744,18.3392793 L35.887051,18.3392793 C36.0120445,18.3392793 36.1057494,18.4486285 36.1057494,18.573622 C36.1057494,18.6986156 36.0120445,18.8079648 35.887051,18.8079648 L32.6215744,18.8079648 C32.4965808,18.8079648 32.402876,18.6986156 32.402876,18.573622 Z" id="路径" fill="#F3F3F3"></path>
                <path d="M32.3872316,18.573622 C32.3872316,18.4329841 32.4965808,18.3236349 32.6215744,18.3236349 L35.887051,18.3236349 C36.0120445,18.3236349 36.1213937,18.4329841 36.1213937,18.573622 C36.1213937,18.7142599 36.0120445,18.8236091 35.887051,18.8236091 L32.6215744,18.8236091 C32.4965808,18.8236091 32.3872316,18.7142599 32.3872316,18.573622 Z M36.090105,18.5892664 C36.090105,18.4799172 35.9964002,18.370568 35.8868897,18.370568 L32.6217357,18.370568 C32.5123865,18.370568 32.4185203,18.4641115 32.4185203,18.5892664 C32.4185203,18.6986156 32.5123865,18.8079648 32.6217357,18.8079648 L35.8872123,18.8079648 C35.9965615,18.7923204 36.0902663,18.6986156 36.0902663,18.5892664 L36.090105,18.5892664 Z" id="形状" fill="#FFFFFF"></path>
                <path d="M34.1371413,20.1516051 C34.1526244,20.0266115 34.2464905,19.9329067 34.3714841,19.9329067 L35.8246349,20.0422559 C35.9494671,20.0579002 36.043172,20.1672494 36.0275276,20.292243 C36.0120445,20.4172365 35.9181784,20.5109414 35.7931849,20.5109414 L34.3401953,20.4015922 C34.2308461,20.3859478 34.13698,20.2765986 34.13698,20.1516051 L34.1371413,20.1516051 Z" id="路径" fill="#F3F3F3"></path>
                <path d="M34.121497,20.1516051 C34.1371413,20.0109672 34.2464905,19.9172623 34.3714841,19.9172623 L35.8246349,20.0266115 C35.9494671,20.0422559 36.0588163,20.1516051 36.043172,20.292243 C36.0276889,20.4328809 35.9181784,20.5265857 35.7931849,20.5265857 L34.3401953,20.4172365 C34.2152018,20.4015922 34.121497,20.2765986 34.121497,20.1516051 Z M36.0276889,20.292243 C36.043172,20.1828938 35.9494671,20.0735446 35.8401179,20.0735446 L34.3869671,19.9641954 C34.2777792,19.9641954 34.1839131,20.0422559 34.1682687,20.1674107 C34.1527857,20.2765986 34.2464905,20.3859478 34.3558397,20.3859478 L35.8089905,20.495297 C35.9181784,20.495297 36.0120445,20.4017535 36.0276889,20.292243 L36.0276889,20.292243 Z" id="形状" fill="#FFFFFF"></path>
                <path d="M32.1216002,21.2921914 C32.1528889,21.1671978 32.2622381,21.0889761 32.3872316,21.1047817 L35.5901308,21.7453938 C35.7151244,21.7765212 35.7933461,21.8858704 35.7620574,22.010864 C35.7307687,22.1358575 35.6214195,22.2140793 35.496426,22.1984349 L32.2933655,21.5578228 C32.1840163,21.5421785 32.1059558,21.4171849 32.1216002,21.2921914 L32.1216002,21.2921914 Z" id="路径" fill="#F3F3F3"></path>
                <path d="M32.1059558,21.2921914 C32.1372445,21.1515535 32.2622381,21.073493 32.3872316,21.0889761 L35.5901308,21.7297494 C35.7151244,21.7608769 35.8088292,21.8858704 35.7775405,22.0265083 C35.7464131,22.1671462 35.6214195,22.245368 35.496426,22.2297236 L32.2933655,21.5891115 C32.168372,21.5578228 32.0903115,21.4328293 32.1059558,21.2923527 L32.1059558,21.2921914 Z M35.7464131,22.0265083 C35.7620574,21.9171591 35.6996413,21.8078099 35.5901308,21.7765212 L32.3870703,21.1359091 C32.2778824,21.120426 32.168372,21.1828422 32.1370832,21.3078357 C32.1216002,21.4171849 32.1840163,21.5265341 32.2935268,21.5578228 L35.496426,22.1984349 C35.6214195,22.2140793 35.7151244,22.1358575 35.7464131,22.0265083 Z" id="形状" fill="#FFFFFF"></path>
                <path d="M33.5278179,23.1670946 C33.5423052,23.1070311 33.5800663,23.0551861 33.6327893,23.0229714 C33.6855124,22.9907568 33.7488759,22.9808132 33.8089324,22.9953293 L35.2151502,23.385793 C35.3401437,23.4170817 35.4025599,23.5422365 35.3714324,23.6670688 C35.3569827,23.7271972 35.319212,23.77911 35.2664477,23.8113615 C35.2136835,23.843613 35.1502586,23.853555 35.0901566,23.8389954 L33.6839389,23.4483704 C33.5589453,23.4170817 33.4965292,23.2920882 33.5276566,23.1670946 L33.5278179,23.1670946 Z" id="路径" fill="#F3F3F3"></path>
                <path d="M33.5120123,23.1670946 C33.543301,23.0421011 33.6839389,22.9483962 33.8089324,22.9953293 L35.2151502,23.385793 C35.3401437,23.4170817 35.4183655,23.5577196 35.3870768,23.6827132 C35.3557881,23.8077067 35.2151502,23.9014115 35.0901566,23.8546398 L33.6839389,23.4640148 C33.5589453,23.4327261 33.4807236,23.3077325 33.5121736,23.1672559 L33.5120123,23.1670946 Z M35.3401437,23.6827132 C35.3714324,23.573364 35.308855,23.4483704 35.1995058,23.4170817 L33.7932881,23.0264567 C33.6839389,22.995168 33.5745897,23.0577454 33.543301,23.182739 C33.5121736,23.2920882 33.5745897,23.4170817 33.6839389,23.4483704 L35.0901566,23.8389954 C35.1995058,23.8546398 35.308855,23.7922236 35.3401437,23.6827132 Z" id="形状" fill="#FFFFFF"></path>
                <path d="M31.3247058,23.9170559 C31.3714776,23.7920623 31.5122768,23.7451293 31.6214647,23.7920623 L34.6371155,25.0419978 C34.7464647,25.0887696 34.8088808,25.2295688 34.7621091,25.3387567 C34.715176,25.4639115 34.5745381,25.5106833 34.4651889,25.4639115 L31.4496994,24.2139761 C31.3247058,24.1672043 31.2777728,24.0264051 31.3247058,23.9172172 L31.3247058,23.9170559 Z" id="路径" fill="#F3F3F3"></path>
                <path d="M31.3090615,23.9014115 C31.3566985,23.7764147 31.4964843,23.7135182 31.621626,23.7607736 L34.6371155,25.0107091 C34.7621091,25.0576422 34.8088808,25.1982801 34.7621091,25.338918 C34.714472,25.4639149 34.5746862,25.5268113 34.4495445,25.4795559 L31.434055,24.2296204 C31.3090615,24.167043 31.2622897,24.0264051 31.3090615,23.9014115 Z M34.7308203,25.3232736 C34.7775921,25.2139244 34.7308203,25.0889309 34.6214711,25.0419978 L31.6059816,23.7920623 C31.4966324,23.7452906 31.3872832,23.8077067 31.3403502,23.9170559 C31.2935784,24.0264051 31.3403502,24.1513986 31.4496994,24.1983317 L34.4651889,25.4482672 C34.5745381,25.4795559 34.6995316,25.4326228 34.7308203,25.3232736 Z" id="形状" fill="#FFFFFF"></path>
                <path d="M32.3402986,26.0263019 C32.402876,25.9169527 32.5277082,25.8700196 32.6370574,25.9169527 L33.933926,26.5732091 C34.0432752,26.6199809 34.0902082,26.7606188 34.0277921,26.8856124 C33.9652147,26.9949616 33.8402211,27.0420559 33.730872,26.9949616 L32.4341647,26.3388664 C32.3246542,26.276289 32.2777211,26.1356511 32.3402986,26.0263019 Z" id="路径" fill="#F3F3F3"></path>
                <path d="M32.3246542,26.0106575 C32.3872316,25.885664 32.5278695,25.8388922 32.6528631,25.9013083 L33.9495703,26.5575648 C34.0745639,26.6201422 34.121497,26.7607801 34.0589195,26.8856124 C33.9965034,27.0106059 33.8557042,27.057539 33.730872,26.9949616 L32.4341647,26.3388664 C32.3090099,26.2920946 32.2622381,26.1356511 32.3246542,26.0106575 L32.3246542,26.0106575 Z M34.0121478,26.869968 C34.0589195,26.7606188 34.0276308,26.6356253 33.9182816,26.5888535 L32.6215744,25.932597 C32.5277082,25.8858252 32.402876,25.932597 32.3402986,26.0263019 C32.2935268,26.1356511 32.3246542,26.2606446 32.4340034,26.3075777 L33.7307107,26.9638341 C33.8402211,27.0106059 33.9652147,26.9794785 34.0121478,26.869968 Z" id="形状" fill="#FFFFFF"></path>
                <path d="M30.0434816,26.323222 C30.1217034,26.2138728 30.2466969,26.1825841 30.3560461,26.2606446 L33.0746155,28.0731317 C33.1839647,28.1355478 33.1996091,28.276347 33.1371929,28.3855349 C33.0589711,28.4950454 32.9339776,28.5261728 32.8246284,28.4481124 L30.106059,26.6356253 C29.9967098,26.5575648 29.9654211,26.4169269 30.0434816,26.323222 Z" id="路径" fill="#F3F3F3"></path>
                <path d="M30.0278373,26.3075777 C30.106059,26.1982285 30.2623413,26.1669398 30.3716905,26.2295172 L33.0902599,28.041843 C33.1996091,28.1199035 33.2308978,28.2605414 33.152676,28.3855349 C33.0746155,28.4950454 32.9183332,28.5261728 32.8091453,28.4637567 L30.0904147,26.6512696 C29.9654211,26.5732091 29.9497768,26.4169269 30.0278373,26.3075777 Z M33.1059042,28.3698906 C33.1683203,28.276347 33.152676,28.1355478 33.0591324,28.0731317 L30.3404018,26.2606446 C30.2466969,26.1982285 30.1217034,26.2295172 30.059126,26.323222 C29.9967098,26.4169269 30.0123542,26.5575648 30.1058978,26.6199809 L32.8246284,28.432468 C32.9183332,28.4950454 33.0433268,28.4637567 33.1059042,28.3700519 L33.1059042,28.3698906 Z" id="形状" fill="#FFFFFF"></path>
                <path d="M30.6216776,28.5887503 C30.6997381,28.4948841 30.840376,28.4637567 30.9340808,28.5419785 L32.0746671,29.4324164 C32.168372,29.5104769 32.1840163,29.6511148 32.1059558,29.7449809 C32.0278953,29.8385245 31.8872574,29.8699745 31.7933913,29.7917527 L30.652805,28.9011535 C30.5592615,28.823093 30.5434558,28.6824551 30.6216776,28.5887503 L30.6216776,28.5887503 Z" id="路径" fill="#F3F3F3"></path>
                <path d="M30.6060332,28.5731059 C30.6840937,28.4637567 30.840376,28.4481124 30.9497252,28.5263341 L32.0903115,29.416772 C32.1996607,29.4948325 32.215305,29.6511148 32.1370832,29.760464 C32.0590228,29.8699745 31.9027405,29.8854575 31.7935526,29.807397 L30.652805,28.9167978 C30.5434558,28.8387374 30.5279727,28.6824551 30.6060332,28.5731059 Z M32.1059558,29.7449809 C32.1840163,29.6511148 32.168372,29.5261212 32.0746671,29.4480607 L30.9340808,28.5574616 C30.840376,28.4950454 30.7153824,28.5106898 30.6373219,28.6042333 C30.5591002,28.6980995 30.5747445,28.823093 30.6684494,28.9011535 L31.8090357,29.7917527 C31.9027405,29.8543301 32.0277341,29.8385245 32.1057945,29.7449809 L32.1059558,29.7449809 Z" id="形状" fill="#FFFFFF"></path>
                <path d="M28.2935719,28.432468 C28.3874381,28.3387632 28.528076,28.3387632 28.6061365,28.432468 L30.9184365,30.7291237 C31.0123026,30.8229898 30.9966582,30.9636277 30.9184365,31.0416882 C30.8248929,31.135393 30.6840937,31.135393 30.6060332,31.0416882 L28.2935719,28.7450325 C28.2155115,28.6668107 28.2155115,28.5105285 28.2935719,28.432468 L28.2935719,28.432468 Z" id="路径" fill="#F3F3F3"></path>
                <path d="M28.2935719,28.4168236 C28.3889747,28.3229646 28.5420224,28.3229646 28.6374252,28.4168236 L30.9497252,30.7134793 C31.0435842,30.8088821 31.0435842,30.9619298 30.9497252,31.0573325 C30.8543419,31.1510858 30.7014165,31.1510858 30.6060332,31.0573325 L28.2935719,28.7606769 C28.1842227,28.6668107 28.1842227,28.5106898 28.2935719,28.4168236 L28.2935719,28.4168236 Z M30.9184365,31.0260438 C30.9966582,30.9479833 30.9966582,30.8073454 30.9184365,30.7292849 L28.6061365,28.432468 C28.528076,28.3544075 28.3874381,28.3544075 28.3093776,28.432468 C28.2311558,28.5105285 28.2311558,28.6511664 28.3093776,28.7292269 L30.6216776,31.0260438 C30.6997381,31.1199099 30.8248929,31.1199099 30.9184365,31.0260438 Z" id="形状" fill="#FFFFFF"></path>
                <path d="M28.4342098,30.7604124 C28.528076,30.6823519 28.6685526,30.6823519 28.7467744,30.7760567 L29.699951,31.86971 C29.7778502,31.9635761 29.7623671,32.104214 29.668501,32.1822745 C29.5749574,32.260335 29.4341582,32.260335 29.3560977,32.1666301 L28.4029211,31.0729769 C28.3248607,30.9949164 28.340505,30.8542785 28.4342098,30.7604124 L28.4342098,30.7604124 Z" id="路径" fill="#F3F3F3"></path>
                <path d="M28.4187268,30.7604124 C28.528076,30.6668688 28.6687139,30.6823519 28.7622574,30.7760567 L29.715434,31.86971 C29.8091389,31.9635761 29.7934945,32.119697 29.6841453,32.2135632 C29.5747961,32.307268 29.4341582,32.2916237 29.3404534,32.1979188 L28.3872768,31.1042656 C28.3092163,30.9949164 28.3092163,30.8386341 28.4185655,30.7604124 L28.4187268,30.7604124 Z M29.6686623,32.1822745 C29.7622058,32.104214 29.7622058,31.9790591 29.6997897,31.8855156 L28.7466131,30.7917011 C28.6685526,30.7136406 28.543559,30.6979962 28.4498542,30.7760567 C28.3561494,30.8542785 28.3561494,30.979272 28.4185655,31.0728156 L29.3717421,32.1666301 C29.4498026,32.260335 29.5749574,32.260335 29.668501,32.1822745 L29.6686623,32.1822745 Z" id="形状" fill="#FFFFFF"></path>
                <path d="M26.184326,30.1667333 C26.2936752,30.0886728 26.4343131,30.1199616 26.4968905,30.2293107 L28.309055,32.9322358 C28.3716324,33.041585 28.3403437,33.1822229 28.2466389,33.2448003 C28.1372897,33.3228608 27.9966518,33.291572 27.9340744,33.1822229 L26.1217486,30.4791366 C26.0591711,30.3699486 26.0904598,30.2291495 26.1841647,30.1667333 L26.184326,30.1667333 Z" id="路径" fill="#F3F3F3"></path>
                <path d="M26.184326,30.151089 C26.2936752,30.0730285 26.4499574,30.1043172 26.5280179,30.2136664 L28.340505,32.9167527 C28.4185655,33.0259406 28.3872768,33.1822229 28.2624445,33.2602833 C28.152934,33.3385051 27.9968131,33.3072164 27.9185913,33.1978672 L26.1062655,30.4947809 C26.028205,30.3699486 26.0594937,30.2293107 26.184326,30.1512503 L26.184326,30.151089 Z M28.2468002,33.2291559 C28.340505,33.1665785 28.3717937,33.041585 28.3092163,32.9478801 L26.4968905,30.2447938 C26.4343131,30.1512503 26.3093195,30.1354446 26.2001316,30.198022 C26.1062655,30.2604382 26.0749768,30.3854317 26.1375542,30.4792978 L27.94988,33.1822229 C28.0124574,33.2602833 28.1530953,33.291572 28.2466389,33.2289946 L28.2468002,33.2291559 Z" id="形状" fill="#FFFFFF"></path>
                <path d="M25.8562784,32.4790333 C25.9656276,32.4166172 26.1062655,32.4479059 26.1686816,32.5572551 L26.8875155,33.822835 C26.9499316,33.9321841 26.9029986,34.072822 26.7936494,34.1352382 C26.6843002,34.1978156 26.5436623,34.1665269 26.4812461,34.0571777 L25.7625735,32.7915979 C25.7156405,32.6822487 25.7469292,32.5416108 25.8561171,32.4791946 L25.8562784,32.4790333 Z" id="路径" fill="#F3F3F3"></path>
                <path d="M25.8562784,32.4635503 C25.9812719,32.4009729 26.1219098,32.4322616 26.184326,32.5416108 L26.9029986,33.8071906 C26.965576,33.9165398 26.9342992,34.072822 26.809455,34.1352382 C26.6843002,34.1978156 26.5436623,34.1665269 26.4812461,34.0571777 L25.7625735,32.7915979 C25.6999961,32.6822487 25.7312729,32.5416108 25.8561171,32.4635503 L25.8562784,32.4635503 Z M26.7936494,34.1197551 C26.8875155,34.0571777 26.9342873,33.9321841 26.8718711,33.8384793 L26.1531985,32.5728995 C26.0906211,32.4791946 25.9656276,32.4479059 25.8719227,32.4946777 C25.7780566,32.5572551 25.7312848,32.6822487 25.793701,32.7759535 L26.5125348,34.0415333 C26.5593066,34.1352382 26.6999445,34.1821712 26.7936494,34.1195938 L26.7936494,34.1197551 Z" id="形状" fill="#FFFFFF"></path>
                <path d="M23.7781598,31.4479575 C23.9031534,31.4011857 24.0281469,31.4479575 24.07508,31.5573067 L25.3406598,34.5727962 C25.3874316,34.6821454 25.3250155,34.8227833 25.2156663,34.8695551 C25.1063171,34.9164882 24.9656792,34.8695551 24.9189074,34.7602059 L23.6533276,31.7448777 C23.6063945,31.6353672 23.6688106,31.4948906 23.7781598,31.4479575 Z" id="路径" fill="#F3F3F3"></path>
                <path d="M23.7781598,31.4323132 C23.9031534,31.3855414 24.0437913,31.4323132 24.1063687,31.5573067 L25.3719485,34.5727962 C25.4190977,34.6978914 25.3562206,34.837562 25.2313106,34.8851995 C25.1063171,34.9321325 24.9656792,34.8851995 24.9032631,34.7602059 L23.6376832,31.7448777 C23.5907502,31.6353672 23.6533276,31.4948906 23.7781598,31.4323132 L23.7781598,31.4323132 Z M25.2000219,34.854072 C25.3093711,34.807139 25.3563042,34.6821454 25.3093711,34.5884406 L24.0437913,31.5729511 C23.9970195,31.4636019 23.872026,31.4166688 23.7626768,31.4636019 C23.6533276,31.5103737 23.6062332,31.6353672 23.6533276,31.7292333 L24.9187461,34.7447229 C24.9813235,34.854072 25.0906727,34.9008438 25.2000219,34.854072 Z" id="形状" fill="#FFFFFF"></path>
                <path d="M23.0125542,33.6665527 C23.137709,33.6197809 23.2625413,33.682197 23.3094743,33.8071906 L23.7626768,35.1821196 C23.8094485,35.2914688 23.7313881,35.4321067 23.6220389,35.4633954 C23.4970453,35.5101672 23.3720518,35.4477511 23.32528,35.3227575 L22.8720776,33.9478285 C22.8253058,33.8384793 22.8877219,33.7134858 23.0127155,33.6665527 L23.0125542,33.6665527 Z" id="路径" fill="#F3F3F3"></path>
                <path d="M22.9970711,33.6509083 C23.1221663,33.6037592 23.2618369,33.6666362 23.3094743,33.7915462 L23.7626768,35.1664753 C23.8094485,35.2914688 23.7313881,35.4321067 23.6062332,35.4790398 C23.4811381,35.5261889 23.3414675,35.4633119 23.29383,35.3384019 L22.8407889,33.9634729 C22.8095002,33.8384793 22.8720776,33.6978414 22.9970711,33.6509083 L22.9970711,33.6509083 Z M23.6063945,35.4475898 C23.7157437,35.4164624 23.7781598,35.2914688 23.7470324,35.1821196 L23.29383,33.8071906 C23.2627026,33.6978414 23.137709,33.6509083 23.0283598,33.682197 C22.9188493,33.7134858 22.8564332,33.8384793 22.8877219,33.9478285 L23.3407631,35.3227575 C23.3568694,35.3763983 23.3950196,35.4206632 23.4456962,35.4445092 C23.4963729,35.4683552 23.5547974,35.4695339 23.6063945,35.4477511 L23.6063945,35.4475898 Z" id="形状" fill="#FFFFFF"></path>
                <path d="M21.1691009,32.2448519 C21.2939332,32.2135632 21.419088,32.2916237 21.4345711,32.4166172 L22.0908276,35.6196777 C22.1221163,35.74451 22.0282502,35.8540204 21.9032566,35.8851479 C21.7784243,35.9164366 21.6532695,35.8383761 21.6377864,35.7133825 L20.9813687,32.510322 C20.9658856,32.4009729 21.0439461,32.2759793 21.1689397,32.2446906 L21.1691009,32.2448519 Z" id="路径" fill="#F3F3F3"></path>
                <path d="M21.1691009,32.2290462 C21.3095776,32.1979188 21.4345711,32.2916237 21.4658598,32.4166172 L22.1221163,35.6196777 C22.153405,35.74451 22.0595389,35.8851479 21.9345453,35.9007922 C21.7939074,35.9320809 21.6689139,35.8383761 21.6377864,35.7133825 L20.9813687,32.510322 C20.9502413,32.3853285 21.028463,32.260335 21.1689397,32.2292075 L21.1691009,32.2290462 Z M21.9032566,35.8695035 C22.0127671,35.8540204 22.0908276,35.74451 22.0751832,35.6195164 L21.4189268,32.4166172 C21.4034437,32.307268 21.2784501,32.2292075 21.1689397,32.260335 C21.0595905,32.2759793 20.98153,32.3853285 20.9971743,32.510322 L21.6534308,35.7133825 C21.6845582,35.8227317 21.7939074,35.8851479 21.9034179,35.8696648 L21.9032566,35.8695035 Z" id="形状" fill="#FFFFFF"></path>
                <path d="M19.9815816,34.2758761 C20.1065751,34.2602317 20.2159243,34.3384535 20.247213,34.463447 L20.4346227,35.9007922 C20.4502671,36.0257858 20.3565622,36.135135 20.2314074,36.1507793 C20.1065751,36.1664237 19.9972259,36.0883632 19.9659372,35.9633696 L19.7785276,34.5258632 C19.7628832,34.4008696 19.856588,34.2915204 19.9815816,34.2758761 Z" id="路径" fill="#F3F3F3"></path>
                <path d="M19.9815816,34.2602317 C20.1222195,34.2447487 20.247213,34.3384535 20.2628574,34.463447 L20.4502671,35.9007922 C20.4659114,36.0257858 20.3722066,36.1507793 20.2315687,36.1664237 C20.0909308,36.182068 19.9659372,36.0883632 19.9502929,35.9632084 L19.7628832,34.5258632 C19.7472389,34.4008696 19.8409437,34.2758761 19.9815816,34.2602317 Z M20.2159243,36.135135 C20.3252735,36.1196519 20.4191397,36.0101414 20.4034953,35.9007922 L20.2159243,34.463447 C20.20028,34.3540979 20.0909308,34.2758761 19.9815816,34.2915204 C19.8722324,34.3071648 19.7783663,34.416514 19.7940106,34.5258632 L19.9815816,35.9633696 C19.9972259,36.0727188 20.1065751,36.1507793 20.2159243,36.135135 Z" id="形状" fill="#FFFFFF"></path>
                <path d="M18.3723098,32.5259664 C18.4973034,32.5259664 18.6066526,32.6198325 18.6066526,32.7448261 L18.6066526,36.0101414 C18.6066526,36.135135 18.4973034,36.2290011 18.3723098,36.2290011 C18.2473163,36.2290011 18.1379671,36.135135 18.1379671,36.0101414 L18.1379671,32.7448261 C18.1536114,32.6198325 18.2473163,32.5259664 18.3723098,32.5259664 Z" id="路径" fill="#F3F3F3"></path>
                <path d="M18.3723098,32.510322 C18.5129477,32.510322 18.6222969,32.6196712 18.6222969,32.7446648 L18.6222969,36.0101414 C18.6222969,36.135135 18.5129477,36.2444842 18.3723098,36.2444842 C18.2316719,36.2444842 18.1223227,36.135135 18.1223227,36.0101414 L18.1223227,32.7448261 C18.1223227,32.6198325 18.2473163,32.510322 18.3723098,32.510322 Z M18.3723098,36.2133567 C18.481659,36.2133567 18.5910082,36.1196519 18.5910082,36.0101414 L18.5910082,32.7448261 C18.5910082,32.6353156 18.4973034,32.5416108 18.3723098,32.5416108 C18.2629606,32.5416108 18.1536114,32.6353156 18.1536114,32.7448261 L18.1536114,36.0101414 C18.1690945,36.1196519 18.2629606,36.2133567 18.3723098,36.2133567 Z" id="形状" fill="#FFFFFF"></path>
                <path d="M16.8098098,34.2758761 C16.9348034,34.2915204 17.0285082,34.3852253 17.0285082,34.5102188 L16.919159,35.9633696 C16.9036759,36.0883632 16.7941655,36.182068 16.6691719,36.166585 C16.5441784,36.1507793 16.4504735,36.0570745 16.4504735,35.9320809 L16.5598227,34.4789301 C16.5754671,34.3540979 16.6848163,34.2602317 16.8098098,34.2758761 Z" id="路径" fill="#F3F3F3"></path>
                <path d="M16.8098098,34.2602317 C16.9504477,34.2758761 17.0441526,34.3852253 17.0441526,34.5102188 L16.9348034,35.9633696 C16.919159,36.0883632 16.8098098,36.1977124 16.6691719,36.182068 C16.5286953,36.1664237 16.4348292,36.0570745 16.4348292,35.9320809 L16.5441784,34.4789301 C16.5598227,34.3384535 16.6691719,34.2447487 16.8098098,34.2602317 Z M16.6691719,36.1507793 C16.7785211,36.1507793 16.8880316,36.0727188 16.8880316,35.9633696 L16.9973808,34.5102188 C16.9973808,34.4008696 16.919159,34.3071648 16.7941655,34.2915204 C16.6848163,34.2915204 16.5754671,34.3695809 16.5754671,34.4790914 L16.4661179,35.9320809 C16.4661179,36.0414301 16.5598227,36.1352962 16.6693332,36.1507793 L16.6691719,36.1507793 Z" id="形状" fill="#FFFFFF"></path>
                <path d="M15.6380961,32.2448519 C15.7630896,32.2759793 15.8411501,32.3853285 15.8255058,32.510322 L15.1848937,35.7133825 C15.153605,35.8383761 15.0442558,35.9165979 14.9192622,35.8851479 C14.7942687,35.8540204 14.7162082,35.7446712 14.7318525,35.6195164 L15.3724646,32.4166172 C15.388109,32.307268 15.5131025,32.2292075 15.6380961,32.2448519 Z" id="路径" fill="#F3F3F3"></path>
                <path d="M15.6380961,32.2290462 C15.7785727,32.260335 15.8567945,32.3854898 15.8411501,32.510322 L15.200538,35.7133825 C15.1692493,35.8383761 15.0442558,35.9320809 14.9037792,35.9007922 C14.7631413,35.8695035 14.6849195,35.74451 14.7005638,35.6195164 L15.3411759,32.4166172 C15.3724646,32.2916237 15.4974582,32.2134019 15.6379348,32.2292075 L15.6380961,32.2290462 Z M14.9037792,35.8695035 C15.0131284,35.8851479 15.1224775,35.8227317 15.1537663,35.7133825 L15.7942171,32.510322 C15.8098614,32.4009729 15.7474453,32.2916237 15.6224517,32.260335 C15.5131025,32.2448519 15.4037534,32.307268 15.3724646,32.4167785 L14.7318525,35.6195164 C14.7162082,35.74451 14.7942687,35.8383761 14.9037792,35.8695035 L14.9037792,35.8695035 Z" id="形状" fill="#FFFFFF"></path>
                <path d="M13.7630316,33.6509083 C13.8881864,33.682197 13.9662469,33.8071906 13.9349582,33.9321841 L13.5443332,35.3384019 C13.5132058,35.4633954 13.3882122,35.5258116 13.2632187,35.4946841 C13.2030902,35.4802344 13.1511775,35.4424637 13.118926,35.3896994 C13.0866744,35.3369352 13.0767325,35.2735103 13.0912921,35.2134083 L13.4819171,33.8071906 C13.5132058,33.682197 13.6381993,33.6197809 13.7631929,33.6509083 L13.7630316,33.6509083 Z" id="路径" fill="#F3F3F3"></path>
                <path d="M13.7630316,33.6354253 C13.8881864,33.6665527 13.9818913,33.8071906 13.9349582,33.9321841 L13.5443332,35.3384019 C13.5132058,35.4633954 13.3725679,35.5416172 13.2475743,35.5101672 C13.1225808,35.4790398 13.0288759,35.3384019 13.0756477,35.2134083 L13.4662727,33.8071906 C13.4975614,33.682197 13.622555,33.6039753 13.7630316,33.635264 L13.7630316,33.6354253 Z M13.2475743,35.4633954 C13.3569235,35.4946841 13.4819171,35.4321067 13.5132058,35.3227575 L13.9036695,33.9165398 C13.9349582,33.8071906 13.8725421,33.6978414 13.7475485,33.6665527 C13.6381993,33.635264 13.5132058,33.6978414 13.4819171,33.8071906 L13.0912921,35.2134083 C13.0756477,35.3227575 13.1380638,35.4321067 13.2475743,35.4633954 Z" id="形状" fill="#FFFFFF"></path>
                <path d="M12.9975872,31.4479575 C13.1225808,31.4947293 13.1693525,31.6353672 13.1225808,31.7447164 L11.8726453,34.7602059 C11.8258735,34.8697164 11.6850743,34.9321325 11.5758864,34.8697164 C11.4663759,34.807139 11.4037985,34.6821454 11.4507316,34.5727962 L12.7006671,31.5573067 C12.7474388,31.4479575 12.888238,31.3853801 12.9974259,31.4479575 L12.9975872,31.4479575 Z" id="路径" fill="#F3F3F3"></path>
                <path d="M12.9975872,31.4323132 C13.1225841,31.4799502 13.1854805,31.619736 13.1382251,31.7448777 L11.8882896,34.7602059 C11.8413566,34.8851995 11.7007187,34.9321325 11.5600808,34.8851995 C11.4351708,34.837562 11.3722937,34.6978914 11.4194429,34.5727962 L12.6693784,31.5573067 C12.7319558,31.4323132 12.8725937,31.369897 12.9975872,31.4323132 L12.9975872,31.4323132 Z M11.5757251,34.854072 C11.6850743,34.9008438 11.8100679,34.854072 11.8570009,34.7447229 L13.1069364,31.7292333 C13.1537082,31.6198841 13.0912921,31.5103737 12.9819429,31.4636019 C12.8725937,31.4168301 12.7476001,31.4636019 12.7006671,31.5729511 L11.4507316,34.5884406 C11.4194429,34.6821454 11.4663759,34.807139 11.5757251,34.854072 Z" id="形状" fill="#FFFFFF"></path>
                <path d="M10.8883412,32.4479059 C10.9976904,32.510322 11.0444622,32.6353156 10.9976904,32.7446648 L10.341434,34.0415333 C10.2788566,34.1508825 10.153863,34.1978156 10.0288695,34.1352382 C9.91952028,34.072822 9.8727485,33.9478285 9.91952028,33.8384793 L10.575938,32.541772 C10.6383541,32.4322616 10.7633477,32.3853285 10.8883412,32.4479059 Z" id="路径" fill="#F3F3F3"></path>
                <path d="M10.8883412,32.4322616 C11.0133348,32.4946777 11.0601066,32.6354769 10.9976904,32.7603091 L10.341434,34.0571777 C10.2788566,34.1821712 10.1382187,34.2291043 10.0133864,34.1665269 C9.88839286,34.1041108 9.8414598,33.9633116 9.90403721,33.8384793 L10.5601324,32.541772 C10.6227098,32.4166172 10.7633477,32.3698454 10.8883412,32.4322616 Z M10.0290308,34.1353995 C10.13838,34.1821712 10.2633735,34.1508825 10.3101453,34.0415333 L10.9664017,32.7448261 C11.0131735,32.65096 10.9664017,32.5259664 10.8726969,32.4635503 C10.7633477,32.4167785 10.6383541,32.4479059 10.5914211,32.5572551 L9.93516464,33.8539624 C9.88839286,33.9478285 9.93516464,34.072822 10.0290308,34.1352382 L10.0290308,34.1353995 Z" id="形状" fill="#FFFFFF"></path>
                <path d="M10.5757767,30.1356059 C10.6851259,30.2136664 10.7164146,30.3543043 10.6383541,30.4480091 L8.82586705,33.1510954 C8.76345092,33.2602833 8.62265173,33.2759277 8.51346382,33.2135116 C8.40411463,33.1352898 8.37282592,32.9948132 8.45088641,32.900947 L10.2633735,30.1978608 C10.3257896,30.0886728 10.4664275,30.0573841 10.5757767,30.1354446 L10.5757767,30.1356059 Z" id="路径" fill="#F3F3F3"></path>
                <path d="M10.5757767,30.1198003 C10.6851259,30.198022 10.7164146,30.3543043 10.6538372,30.4636535 L8.84151141,33.1667398 C8.76345092,33.2759277 8.62281302,33.3072164 8.49781947,33.2291559 C8.38847027,33.1509341 8.35718156,32.9948132 8.4195977,32.8853027 L10.2320848,30.1823777 C10.3101453,30.0730285 10.4664275,30.0417398 10.5757767,30.1198003 L10.5757767,30.1198003 Z M8.51346382,33.1978672 C8.60700738,33.2602833 8.74780656,33.244639 8.8102227,33.1510954 L10.6227098,30.4480091 C10.6851259,30.3543043 10.6539985,30.2293107 10.5601324,30.1667333 C10.4664275,30.1043172 10.3257896,30.1199616 10.2633735,30.2135051 L8.45088641,32.900947 C8.38847027,32.9948132 8.4195977,33.1352898 8.51346382,33.1977059 L8.51346382,33.1978672 Z" id="形状" fill="#FFFFFF"></path>
                <path d="M8.29460415,30.7136406 C8.38847027,30.7917011 8.4195977,30.932339 8.34153721,31.0260438 L7.43529366,32.1666301 C7.35723318,32.260335 7.21659527,32.2759793 7.12289043,32.1979188 C7.02918559,32.1198583 6.99789688,31.9792204 7.07611865,31.8853543 L7.98220092,30.744768 C8.06026141,30.6512245 8.20089931,30.6354188 8.29460415,30.7136406 Z" id="路径" fill="#F3F3F3"></path>
                <path d="M8.3102485,30.6979962 C8.4195977,30.7760567 8.43524205,30.932339 8.35702028,31.0416882 L7.45093802,32.1822745 C7.37287753,32.2916237 7.21659527,32.307268 7.10724608,32.2135632 C6.99789688,32.1353414 6.98225253,31.9792204 7.0604743,31.86971 L7.96655656,30.7292849 C8.04461705,30.6197745 8.20089931,30.6042914 8.3102485,30.6979962 Z M7.13853479,32.1822745 C7.23207834,32.260335 7.35723318,32.2448519 7.43529366,32.1509858 L8.34153721,31.0103995 C8.40411463,30.9168559 8.38830899,30.7917011 8.29476543,30.7136406 C8.20089931,30.6354188 8.07590576,30.6510632 7.99784527,30.7449293 L7.09160172,31.8853543 C7.02918559,31.9792204 7.04482994,32.119697 7.1383735,32.1822745 L7.13853479,32.1822745 Z" id="形状" fill="#FFFFFF"></path>
                <path d="M8.45088641,28.3700519 C8.54459125,28.4635954 8.54459125,28.6043946 8.45088641,28.6824551 L6.1385864,30.9791108 C6.04472027,31.0729769 5.90424365,31.0573325 5.82602188,30.9791108 C5.7479614,30.9010503 5.73231704,30.744768 5.82602188,30.6667075 L8.12267754,28.3700519 C8.21654366,28.2761857 8.35718156,28.2761857 8.45088641,28.3700519 L8.45088641,28.3700519 Z" id="路径" fill="#F3F3F3"></path>
                <path d="M8.46653076,28.3544075 C8.56017839,28.4497712 8.56017839,28.6025745 8.46653076,28.6979382 L6.15406947,30.9949164 C6.05870575,31.088564 5.90590253,31.088564 5.81053881,30.9949164 C5.71667981,30.8995136 5.71667981,30.7464659 5.81053881,30.6510632 L8.12283882,28.3544075 C8.21822209,28.2606542 8.37114749,28.2606542 8.46653076,28.3544075 L8.46653076,28.3544075 Z M5.82602188,30.9791108 C5.90408237,31.0571712 6.04472027,31.0571712 6.12278076,30.9791108 L8.43524205,28.6822938 C8.51346382,28.6042333 8.51346382,28.4635954 8.43524205,28.3855349 C8.35718156,28.3073132 8.21654366,28.3073132 8.13848318,28.3855349 L5.82602188,30.6821906 C5.7479614,30.7602511 5.7479614,30.8854059 5.82602188,30.9789495 L5.82602188,30.9791108 Z" id="形状" fill="#FFFFFF"></path>
                <path d="M6.10729769,28.4950454 C6.18535818,28.588589 6.18535818,28.7293882 6.09165333,28.8074486 L4.98235575,29.7449809 C4.88865091,29.8230414 4.74801301,29.807397 4.66979124,29.7136922 C4.59173075,29.6198261 4.59173075,29.4793495 4.68543559,29.4011277 L5.79473318,28.4637567 C5.8885993,28.3855349 6.02907592,28.4011793 6.10729769,28.4950454 Z" id="路径" fill="#F3F3F3"></path>
                <path d="M6.12294204,28.4792398 C6.21664688,28.5887503 6.20100253,28.7448712 6.10729769,28.823093 L4.9980001,29.760464 C4.90429526,29.8543301 4.74801301,29.8386857 4.65430816,29.7293366 C4.56044204,29.6198261 4.5760864,29.4637051 4.66979124,29.3854833 L5.7792501,28.4481124 C5.87279366,28.3544075 6.0292372,28.3700519 6.12278076,28.4794011 L6.12294204,28.4792398 Z M4.68543559,29.7136922 C4.76365736,29.807397 4.88865091,29.807397 4.98219447,29.7449809 L6.09165333,28.8074486 C6.16971382,28.7293882 6.18535818,28.6042333 6.10729769,28.5106898 C6.02907592,28.4168236 5.90408237,28.4168236 5.81053881,28.4794011 L4.70107994,29.416772 C4.6073751,29.4948325 4.6073751,29.6199874 4.68543559,29.7135309 L4.68543559,29.7136922 Z" id="形状" fill="#FFFFFF"></path>
                <path d="M6.73226543,26.2450003 C6.81032592,26.3545107 6.77903721,26.4949874 6.66968802,26.5575648 L3.95111865,28.3700519 C3.84176946,28.432468 3.70113155,28.4011793 3.63871542,28.3074745 C3.56049365,28.1981253 3.59178236,28.0574874 3.70113155,27.9949099 L6.4198622,26.1825841 C6.51372832,26.120168 6.65420494,26.1512954 6.73242671,26.2450003 L6.73226543,26.2450003 Z" id="路径" fill="#F3F3F3"></path>
                <path d="M6.74790979,26.2450003 C6.82597027,26.3545107 6.79468156,26.5106317 6.68533237,26.5888535 L3.96676301,28.4011793 C3.85741381,28.4794011 3.70113155,28.4479511 3.62307107,28.3231188 C3.5448493,28.2137696 3.57629929,28.0574874 3.6854872,27.9794269 L6.40421785,26.1669398 C6.51356704,26.0888793 6.66968802,26.120168 6.7477485,26.2450003 L6.74790979,26.2450003 Z M3.65435977,28.2918301 C3.71677591,28.3855349 3.84176946,28.4168236 3.9354743,28.3544075 L6.65404366,26.5419204 C6.74790979,26.4795043 6.77903721,26.3545107 6.70097672,26.2451615 C6.63856059,26.1512954 6.51356704,26.120168 6.41970092,26.1825841 L3.70113155,27.9950712 C3.60742671,28.0731317 3.59178236,28.1981253 3.65435977,28.2918301 Z" id="形状" fill="#FFFFFF"></path>
                <path d="M4.40415979,25.9169527 C4.4667372,26.0263019 4.43544849,26.1669398 4.3260993,26.2295172 L3.06051946,26.9481898 C2.95117026,27.0106059 2.81053236,26.9638341 2.74811623,26.8544849 C2.68553881,26.7451357 2.71682752,26.6044978 2.82617671,26.5419204 L4.09175655,25.8232478 C4.20110575,25.7606704 4.34174365,25.8076035 4.40432107,25.9169527 L4.40415979,25.9169527 Z" id="路径" fill="#F3F3F3"></path>
                <path d="M4.41996542,25.9013083 C4.48238155,26.0263019 4.45109285,26.1669398 4.34174365,26.2295172 L3.07616381,26.9481898 C2.96681462,27.0106059 2.81053236,26.9638341 2.74811623,26.8544849 C2.68553881,26.7294914 2.71682752,26.5888535 2.82617671,26.5262761 L4.09175655,25.8076035 C4.20110575,25.7450261 4.35738801,25.7919591 4.41980414,25.9013083 L4.41996542,25.9013083 Z M2.7635993,26.8388406 C2.82617671,26.9481898 2.95117026,26.9794785 3.0448751,26.9169011 L4.31045494,26.1982285 C4.40415979,26.1356511 4.43544849,26.0106575 4.38867671,25.9169527 C4.3260993,25.8076035 4.20110575,25.7763148 4.10740091,25.8388922 L2.84182107,26.5575648 C2.74811623,26.6043366 2.71682752,26.7294914 2.76376058,26.8388406 L2.7635993,26.8388406 Z" id="形状" fill="#FFFFFF"></path>
                <path d="M5.45104124,23.8389954 C5.49781302,23.963989 5.45104124,24.0889825 5.32604769,24.1357543 L2.31055816,25.3856898 C2.20120897,25.4326228 2.06057107,25.3702067 2.01379929,25.2606962 C1.96686623,25.1357027 2.01379929,25.0107091 2.13879284,24.9639373 L5.15428236,23.7140019 C5.26363155,23.6672301 5.40426946,23.7140019 5.45104124,23.8389954 L5.45104124,23.8389954 Z" id="路径" fill="#F3F3F3"></path>
                <path d="M5.46668559,23.8233511 C5.51345737,23.9483446 5.46668559,24.0889825 5.34169204,24.1513986 L2.32620252,25.4013341 C2.20110737,25.4484832 2.06143674,25.3856062 2.01379929,25.2606962 C1.96686623,25.1357027 2.01379929,24.9950648 2.13879284,24.9326486 L5.15428236,23.6827132 C5.27937751,23.635564 5.41904814,23.698441 5.46668559,23.8233511 L5.46668559,23.8233511 Z M2.04492671,25.2450519 C2.09185977,25.3545623 2.21685332,25.4014954 2.31055816,25.3700454 L5.32604769,24.1201099 C5.43539688,24.0733382 5.48232994,23.9483446 5.43539688,23.8389954 C5.3886251,23.7296462 5.26363155,23.6827132 5.16976543,23.7140019 L2.15427591,24.9639373 C2.04492671,25.0107091 1.99815493,25.1357027 2.04492671,25.2452132 L2.04492671,25.2450519 Z" id="形状" fill="#FFFFFF"></path>
                <path d="M3.24809042,23.0577454 C3.2948622,23.182739 3.23244607,23.3077325 3.10745252,23.3545043 L1.73252348,23.8077067 C1.62317429,23.8544785 1.48253639,23.776418 1.45124768,23.6670688 C1.4044759,23.5420752 1.46689203,23.4170817 1.59188558,23.3703099 L2.96681462,22.9171075 C3.07616381,22.8703357 3.20115736,22.9327519 3.24809042,23.0577454 Z" id="路径" fill="#F3F3F3"></path>
                <path d="M3.26357349,23.0421011 C3.31050655,23.1670946 3.24809042,23.3077325 3.10745252,23.3546656 L1.73252348,23.8077067 C1.60752993,23.8544785 1.46689203,23.776418 1.41995897,23.6514244 C1.37318719,23.5264309 1.43560332,23.385793 1.57640251,23.3390212 L2.95117026,22.8858188 C3.07616381,22.8546914 3.21680171,22.9171075 3.26373477,23.0422623 L3.26357349,23.0421011 Z M1.45140896,23.6359414 C1.48269767,23.7452906 1.60769122,23.807868 1.71704041,23.7765793 L3.09196945,23.3233769 C3.20131864,23.2922494 3.2482517,23.1672559 3.216963,23.0579067 C3.18567429,22.9485575 3.06068074,22.8859801 2.95133154,22.9172688 L1.57640251,23.3704712 C1.46705331,23.417243 1.42012025,23.5265922 1.45140896,23.6359414 Z" id="形状" fill="#FFFFFF"></path>
                <path d="M4.65430816,21.1984865 C4.68543559,21.3234801 4.6073751,21.4484736 4.48238155,21.464118 L1.27932107,22.0890857 C1.15432752,22.1203744 1.04497832,22.0265083 1.0138509,21.9015148 C0.98256219,21.7765212 1.06062268,21.6515277 1.18561623,21.6358833 L4.38867671,21.0109156 C4.51367026,20.9954325 4.63866381,21.073493 4.65414688,21.1984865 L4.65430816,21.1984865 Z" id="路径" fill="#F3F3F3"></path>
                <path d="M4.68543559,21.1984865 C4.7167243,21.3391244 4.62301946,21.464118 4.49802591,21.4952454 L1.29496542,22.1202132 C1.16997187,22.1515019 1.04497832,22.057797 1.0138509,21.9171591 C0.98256219,21.7765212 1.07626703,21.6515277 1.20126058,21.6204002 L4.40432107,20.9954325 C4.52915333,20.9641438 4.65430816,21.0578486 4.68543559,21.1984865 Z M1.04497832,21.901676 C1.06062268,22.010864 1.16997187,22.0890857 1.27932107,22.0734414 L4.48238155,21.4484736 C4.59173075,21.4328293 4.66979124,21.3078357 4.63866381,21.1984865 C4.62301946,21.0891373 4.51367026,21.0109156 4.40415979,21.0265599 L1.20126058,21.6515277 C1.09191139,21.6828164 1.0138509,21.7921656 1.04497832,21.9015148 L1.04497832,21.901676 Z" id="形状" fill="#FFFFFF"></path>
                <path d="M2.65441139,19.9954841 C2.66989446,20.1203164 2.59183397,20.2298268 2.46684042,20.2454712 L1.02949525,20.4172365 C0.904340421,20.4328809 0.794991226,20.339176 0.779508154,20.2140212 C0.763863801,20.0891889 0.841924288,19.9798398 0.966917836,19.9640341 L2.40442429,19.7922688 C2.51377348,19.7766244 2.63876703,19.8703293 2.65441139,19.9954841 Z" id="路径" fill="#F3F3F3"></path>
                <path d="M2.67005574,19.9954841 C2.68553881,20.1359607 2.59183397,20.2609543 2.46684042,20.2765986 L1.02949525,20.4485252 C0.904340421,20.4641696 0.779508154,20.3704648 0.763863801,20.2298268 C0.748219447,20.0891889 0.841924288,19.9641954 0.966917836,19.948551 L2.40442429,19.7766244 C2.52925655,19.7609801 2.65441139,19.8548462 2.66989446,19.9953228 L2.67005574,19.9954841 Z M0.779346872,20.2141825 C0.794991226,20.3235317 0.904501703,20.4173978 1.0138509,20.4015922 L2.45119607,20.2298268 C2.56054526,20.2141825 2.63876703,20.1048333 2.62312268,19.9954841 C2.60747832,19.8859736 2.49812913,19.7922688 2.38877993,19.8079131 L0.951273483,19.9798398 C0.841924288,19.9954841 0.763863801,20.1048333 0.779346872,20.2141825 L0.779346872,20.2141825 Z" id="形状" fill="#FFFFFF"></path>
                <path d="M4.40415979,18.4797559 C4.40415979,18.6049107 4.31061623,18.7142599 4.1854614,18.7142599 L0.920146057,18.7142599 C0.795152508,18.7142599 0.701447667,18.6049107 0.701447667,18.4799172 C0.701447667,18.3549236 0.795152508,18.2454131 0.920146057,18.2454131 L4.18562268,18.2454131 C4.31061623,18.2454131 4.40448235,18.3549236 4.40448235,18.4799172 L4.40415979,18.4797559 Z" id="路径" fill="#F3F3F3"></path>
                <path d="M4.41996542,18.4797559 C4.41996542,18.6205551 4.31045494,18.729743 4.1854614,18.729743 L0.920146057,18.729743 C0.795152508,18.729743 0.685803313,18.6203938 0.685803313,18.4797559 C0.685803313,18.3392793 0.795152508,18.2297688 0.920146057,18.2297688 L4.18562268,18.2297688 C4.31061623,18.2297688 4.41996542,18.3392793 4.41996542,18.4797559 Z M0.716930739,18.4642728 C0.716930739,18.573622 0.81063558,18.6829712 0.920146057,18.6829712 L4.1854614,18.6829712 C4.29481059,18.6829712 4.38867671,18.5892664 4.38867671,18.4642728 C4.38867671,18.3549236 4.29481059,18.2454131 4.1854614,18.2454131 L0.920146057,18.2454131 C0.810796862,18.2610575 0.717092021,18.3549236 0.717092021,18.4642728 L0.716930739,18.4642728 Z" id="形状" fill="#FFFFFF"></path>
                <path d="M2.67005574,16.9017728 C2.6542501,17.0267664 2.56054526,17.1204712 2.43555171,17.1204712 L0.982400908,17.011122 C0.857568642,16.9954777 0.763863801,16.8861285 0.779346872,16.7611349 C0.794991226,16.6361414 0.888857349,16.5424365 1.0138509,16.5424365 L2.46684042,16.6517857 C2.57618962,16.6674301 2.67005574,16.7767793 2.67005574,16.9017728 Z" id="路径" fill="#E2E2E2"></path>
                <path d="M2.68553881,16.9017728 C2.66989446,17.0424107 2.56054526,17.1361156 2.43555171,17.1361156 L0.982400908,17.0267664 C0.857568642,17.011122 0.748219447,16.9017728 0.763863801,16.7611349 C0.779346872,16.6206583 0.888857349,16.5267922 1.0138509,16.5267922 L2.46684042,16.6361414 C2.59183397,16.6517857 2.68553881,16.7767793 2.68553881,16.9017728 Z M0.779346872,16.7611349 C0.763863801,16.8704841 0.857568642,16.9799946 0.966917836,16.9799946 L2.42006864,17.0893438 C2.52925655,17.0893438 2.62312268,17.011122 2.63876703,16.8861285 C2.65441139,16.7767793 2.56054526,16.6674301 2.45119607,16.6674301 L0.998045262,16.5580809 C0.888857349,16.5580809 0.794991226,16.6517857 0.779346872,16.7612962 L0.779346872,16.7611349 Z" id="形状" fill="#FFFFFF"></path>
                <path d="M4.68543559,15.7611865 C4.65414688,15.8861801 4.54479769,15.9644018 4.41980414,15.9487575 L1.21690493,15.292501 C1.09191139,15.2612123 1.01368962,15.1518631 1.04497832,15.0268696 C1.07626703,14.901876 1.18561623,14.8236543 1.31060977,14.8394599 L4.51367026,15.480072 C4.62301946,15.5111994 4.70107994,15.636193 4.68543559,15.7611865 L4.68543559,15.7611865 Z" id="路径" fill="#F3F3F3"></path>
                <path d="M4.70107994,15.7611865 C4.66979124,15.9018244 4.54479769,15.9800462 4.41980414,15.9644018 L1.21690493,15.3237897 C1.09191139,15.292501 0.998206544,15.1675075 1.02949525,15.0270309 C1.06062268,14.8862317 1.18561623,14.8081712 1.31060977,14.8238155 L4.51367026,15.4644276 C4.63866381,15.4957164 4.7167243,15.6207099 4.70107994,15.7611865 L4.70107994,15.7611865 Z M1.06062268,15.0268696 C1.04497832,15.1362188 1.10739446,15.245568 1.21690493,15.2768567 L4.41996542,15.9174688 C4.52931462,15.9331131 4.63866381,15.870697 4.66995252,15.7455422 C4.68543559,15.636193 4.62301946,15.5268438 4.51350898,15.4955551 L1.31077106,14.8551043 C1.18577751,14.8394599 1.09207267,14.9175204 1.06078396,15.0268696 L1.06062268,15.0268696 Z" id="形状" fill="#FFFFFF"></path>
                <path d="M3.27937913,13.8864446 C3.26489375,13.9465432 3.2271082,13.9984168 3.1743481,14.0306356 C3.12158801,14.0628543 3.05818287,14.0727744 2.99810332,14.0582099 L1.59188558,13.6675849 C1.46689203,13.6362962 1.4044759,13.5113026 1.43560332,13.3863091 C1.4500887,13.3262104 1.48787425,13.2743368 1.54063435,13.2421181 C1.59339444,13.2098993 1.65679958,13.1999793 1.71687913,13.2145438 L3.12309687,13.6051688 C3.24809042,13.6362962 3.31050655,13.7612897 3.27937913,13.8862833 L3.27937913,13.8864446 Z" id="路径" fill="#F3F3F3"></path>
                <path d="M3.2948622,13.8864446 C3.26373477,14.0112768 3.12309687,14.105143 2.99810332,14.0582099 L1.59188558,13.6675849 C1.46689203,13.6362962 1.38867026,13.4956583 1.41995897,13.370826 C1.45124768,13.2456712 1.59188558,13.1519664 1.71687913,13.1988994 L3.12309687,13.5895244 C3.24809042,13.6208131 3.32631219,13.7458067 3.2948622,13.8862833 L3.2948622,13.8864446 Z M1.46689203,13.3705035 C1.43560332,13.4800139 1.49818074,13.6050075 1.60752993,13.6361349 L3.01374768,14.0267599 C3.12309687,14.0580486 3.23244607,13.9954712 3.26373477,13.8704777 C3.2948622,13.7611285 3.23244607,13.6361349 3.12309687,13.6050075 L1.71687913,13.2143825 C1.60752993,13.1987381 1.49818074,13.2611543 1.46689203,13.3706647 L1.46689203,13.3705035 Z" id="形状" fill="#FFFFFF"></path>
                <path d="M5.48232994,13.1364833 C5.43555816,13.2613155 5.29475898,13.3082486 5.18557107,13.2613155 L2.16992026,12.0113801 C2.06057107,11.9646083 1.99815493,11.8239704 2.04492671,11.7146212 C2.09185977,11.5896276 2.23249768,11.5426946 2.34184687,11.5896276 L5.3573364,12.8395631 C5.48232994,12.8863349 5.52926301,13.0269728 5.48232994,13.136322 L5.48232994,13.1364833 Z" id="路径" fill="#F3F3F3"></path>
                <path d="M5.4979743,13.1519664 C5.45033729,13.2769632 5.31055144,13.3398597 5.18540979,13.2926043 L2.16992026,12.0426688 C2.04492671,11.995897 1.99815493,11.8552591 2.04492671,11.7146212 C2.09256373,11.5896243 2.23234957,11.5267279 2.35749123,11.5739833 L5.37298075,12.8239188 C5.4979743,12.8863349 5.54474608,13.0271341 5.4979743,13.1519664 L5.4979743,13.1519664 Z M2.07621542,11.7302655 C2.02944364,11.8396147 2.07621542,11.9646083 2.18556462,12.0113801 L5.20105414,13.2613155 C5.31040333,13.3082486 5.41975253,13.2456712 5.46668559,13.136322 C5.51345737,13.0269728 5.46668559,12.9019793 5.3573364,12.8552075 L2.34184687,11.605272 C2.23249768,11.5739833 2.10750413,11.6209163 2.07621542,11.7302655 Z" id="形状" fill="#FFFFFF"></path>
                <path d="M4.4667372,11.027076 C4.40432107,11.1364252 4.27932752,11.1833583 4.16997832,11.1364252 L2.87310977,10.48033 C2.76376058,10.433397 2.71682752,10.2927591 2.77940493,10.1677655 C2.84182107,10.0584163 2.96681462,10.0114833 3.07616381,10.0584163 L4.37287108,10.7146728 C4.48238155,10.7770889 4.52931462,10.9178881 4.4667372,11.027076 Z" id="路径" fill="#F3F3F3"></path>
                <path d="M4.48238155,11.0427204 C4.41980414,11.1677139 4.27916624,11.214647 4.15417269,11.1520696 L2.85746542,10.4958131 C2.73247187,10.433397 2.68553881,10.2927591 2.74811623,10.1677655 C2.81053236,10.042772 2.95133154,9.99583892 3.07616381,10.0584163 L4.37287108,10.7146728 C4.49802591,10.7614446 4.54479769,10.9178881 4.48238155,11.0427204 L4.48238155,11.0427204 Z M2.79488801,10.1834099 C2.74811623,10.2927591 2.77940493,10.4177526 2.88875413,10.4646857 L4.1854614,11.1209421 C4.27932752,11.1677139 4.40432107,11.1209421 4.4667372,11.027076 C4.51350898,10.9177268 4.48238155,10.7927333 4.37303236,10.7458002 L3.06035818,10.0898663 C2.96665333,10.0430945 2.84165979,10.074222 2.79472672,10.1835712 L2.79488801,10.1834099 Z" id="形状" fill="#FFFFFF"></path>
                <path d="M6.76339286,10.7301559 C6.68533237,10.8396663 6.56033882,10.870955 6.45098963,10.7927333 L3.74790333,8.99605182 C3.63871542,8.9334744 3.62307107,8.7928365 3.6854872,8.6834873 C3.74806462,8.57413811 3.88870252,8.5428494 3.99805171,8.62090989 L6.71662108,10.433397 C6.81032592,10.4959744 6.84161463,10.6366123 6.76339286,10.7301559 Z" id="路径" fill="#F3F3F3"></path>
                <path d="M6.77903721,10.7458002 C6.70097672,10.8553107 6.54469447,10.8864381 6.43550655,10.824022 L3.73242026,9.01153489 C3.62307107,8.9334744 3.59178236,8.7928365 3.66984285,8.66800423 C3.74806462,8.55849376 3.90434687,8.52720505 4.01369607,8.58978246 L6.71662108,10.4021083 C6.84161463,10.48033 6.85725898,10.636451 6.77903721,10.7458002 Z M3.70113155,8.6834873 C3.63871542,8.77719214 3.65435977,8.91783005 3.74790333,8.98024618 L6.46663398,10.7928946 C6.56033882,10.855472 6.68533237,10.8241833 6.74790979,10.7304784 C6.81032592,10.6366123 6.79468156,10.4959744 6.70113801,10.4335583 L3.98224608,8.62107117 C3.88854124,8.55849376 3.76354769,8.58978246 3.70097027,8.6834873 L3.70113155,8.6834873 Z" id="形状" fill="#FFFFFF"></path>
                <path d="M6.18535818,8.46478891 C6.10729769,8.55849376 5.96665979,8.58978246 5.87295494,8.51156069 L4.73236865,7.62112278 C4.63866381,7.54290101 4.62301946,7.40226311 4.70107994,7.30855827 C4.77914043,7.21485343 4.91977833,7.18356472 5.01364446,7.26178649 L6.15406947,8.1522244 C6.24793559,8.23044617 6.26357994,8.37092279 6.18535818,8.46478891 L6.18535818,8.46478891 Z" id="路径" fill="#F3F3F3"></path>
                <path d="M6.20100253,8.48027199 C6.12294204,8.58978246 5.96665979,8.60542682 5.85731059,8.52720505 L4.7167243,7.63676713 C4.6073751,7.55870665 4.59173075,7.40242439 4.66995252,7.29323648 C4.74801301,7.183726 4.90429526,7.16808165 5.01348318,7.24630342 L6.15406947,8.13674133 C6.26357994,8.2149631 6.2792243,8.37108407 6.20100253,8.48059455 L6.20100253,8.48027199 Z M4.70107994,7.30855827 C4.62301946,7.40226311 4.63866381,7.52725666 4.73236865,7.60531714 L5.87295494,8.49607762 C5.96665979,8.55849376 6.09165333,8.5428494 6.16971382,8.44914456 C6.24793559,8.35543972 6.23229124,8.23044617 6.1385864,8.15238568 L4.9980001,7.26162521 C4.90429526,7.19920907 4.77914043,7.21485343 4.70124123,7.30855827 L4.70107994,7.30855827 Z" id="形状" fill="#FFFFFF"></path>
                <path d="M8.51330254,8.62090989 C8.41975898,8.71477601 8.2789598,8.71477601 8.20089931,8.62090989 L5.87311623,6.32425423 C5.77941139,6.23054939 5.79489446,6.08991149 5.87311623,6.01168972 C5.96682107,5.91814616 6.10745897,5.91814616 6.18551946,6.01168972 L8.49798075,8.30850666 C8.59168559,8.38656714 8.59168559,8.5428494 8.5136251,8.62107117 L8.51330254,8.62090989 Z" id="路径" fill="#F3F3F3"></path>
                <path d="M8.51330254,8.63671552 C8.41793882,8.73036316 8.2651356,8.73036316 8.16977188,8.63671552 L5.85714931,6.3397373 C5.76329031,6.24433455 5.76329031,6.09128684 5.85714931,5.99588408 C5.95253257,5.90213081 6.10545798,5.90213081 6.20084125,5.99588408 L8.51330254,8.29270102 C8.62265173,8.38640586 8.62265173,8.54268812 8.51330254,8.63639296 L8.51330254,8.63671552 Z M5.88876058,6.02717279 C5.81053881,6.10539456 5.81053881,6.24603246 5.88876058,6.32393167 L8.20106059,8.62074861 C8.27928236,8.69897038 8.41975898,8.69897038 8.49781947,8.62074861 C8.57604124,8.54268812 8.57604124,8.40205022 8.49781947,8.32398973 L6.18551946,6.01168972 C6.10745897,5.93362923 5.98230414,5.93362923 5.88876058,6.02733407 L5.88876058,6.02717279 Z" id="形状" fill="#FFFFFF"></path>
                <path d="M8.37282592,6.29296552 C8.27912108,6.37118729 8.13848318,6.37118729 8.06026141,6.27732117 L7.1070848,5.18366794 C7.02918559,5.0899631 7.04466866,4.9493252 7.13853479,4.87126471 C7.23207834,4.79304294 7.37287753,4.79304294 7.45093802,4.88674778 L8.40411463,5.98056229 C8.48217511,6.05862278 8.46653076,6.19926068 8.37282592,6.29296552 Z" id="路径" fill="#F3F3F3"></path>
                <path d="M8.38847027,6.29296552 C8.27912108,6.38667037 8.13848318,6.37118729 8.04461705,6.27732117 L7.09160172,5.18366794 C6.99789688,5.0899631 7.01354124,4.93368084 7.12289043,4.839976 C7.23223963,4.74610988 7.37287753,4.76175423 7.46658237,4.85562036 L8.41975898,5.9491123 C8.49781947,6.05862278 8.49781947,6.21490504 8.38847027,6.29296552 L8.38847027,6.29296552 Z M7.13853479,4.87126471 C7.04466866,4.9493252 7.04466866,5.07431874 7.10724608,5.16802359 L8.06042269,6.26167682 C8.13848318,6.33989859 8.26347672,6.35554294 8.35718156,6.27732117 C8.45088641,6.19926068 8.45088641,6.07410585 8.38847027,5.98056229 L7.43529366,4.88674778 C7.35723318,4.79320422 7.23207834,4.79320422 7.13853479,4.87126471 L7.13853479,4.87126471 Z" id="形状" fill="#FFFFFF"></path>
                <path d="M10.6227098,6.88680584 C10.5133606,6.96486633 10.3727227,6.93357762 10.3101453,6.82422843 L8.48217511,4.12114213 C8.4195977,4.01179294 8.45088641,3.87115504 8.54459125,3.8087389 C8.65394044,3.73067842 8.79457834,3.76196712 8.85715576,3.87131632 L10.6694816,6.57424133 C10.7477033,6.68359052 10.7164146,6.82422843 10.6227098,6.88664456 L10.6227098,6.88680584 Z" id="路径" fill="#F3F3F3"></path>
                <path d="M10.6227098,6.90228891 C10.5133606,6.98051068 10.3570783,6.94906069 10.2788566,6.83987278 L8.46653076,4.13678649 C8.38847027,4.02743729 8.41975898,3.87131632 8.54459125,3.79325583 C8.65394044,3.71503406 8.8102227,3.74632277 8.88844447,3.85567197 L10.7007703,6.55859698 C10.7788308,6.68359052 10.7475421,6.82422843 10.6227098,6.90228891 Z M8.56007432,3.82438326 C8.46636948,3.88679939 8.43508077,4.01179294 8.49765819,4.10565906 L10.309984,6.80858407 C10.3725614,6.90228891 10.497555,6.91793327 10.6067429,6.85535585 C10.700609,6.79293972 10.7318977,6.66794617 10.6693203,6.57424133 L8.85715576,3.88679939 C8.79457834,3.79325583 8.65394044,3.76180584 8.56039688,3.82438326 L8.56007432,3.82438326 Z" id="形状" fill="#FFFFFF"></path>
                <path d="M10.9507574,4.57434455 C10.8414082,4.63676068 10.7007703,4.60563326 10.6383541,4.49628406 L9.91952028,3.23070422 C9.85710415,3.12135503 9.90387593,2.98071712 10.0133864,2.91813971 C10.1227356,2.85572358 10.2633735,2.886851 10.3257896,2.99636148 L11.0444622,4.26178004 C11.0913953,4.37112923 11.0601066,4.51176713 10.9509187,4.57434455 L10.9507574,4.57434455 Z" id="路径" fill="#F3F3F3"></path>
                <path d="M10.9507574,4.5899889 C10.8257638,4.65240504 10.6851259,4.62127761 10.6227098,4.51176713 L9.90387593,3.24634858 C9.8414598,3.1368381 9.8727485,2.98071712 9.99774205,2.91813971 C10.1227356,2.85572358 10.2633735,2.886851 10.3257896,2.99636148 L11.0444622,4.26178004 C11.1070396,4.37112923 11.0757629,4.51176713 10.9509187,4.5899889 L10.9507574,4.5899889 Z M10.0133864,2.93378406 C9.91952028,2.9962002 9.8727485,3.12119374 9.93516464,3.21505987 L10.6539985,4.48063971 C10.7164146,4.57418327 10.8414082,4.60563326 10.935113,4.5587002 C11.0289791,4.49628406 11.0757509,4.37112923 11.0133348,4.27742439 L10.2945009,3.01184455 C10.2477291,2.91830099 10.1070912,2.87120665 10.0133864,2.93378406 L10.0133864,2.93378406 Z" id="形状" fill="#FFFFFF"></path>
                <path d="M13.0287146,5.60558165 C12.9038824,5.65235343 12.7787275,5.60558165 12.7319558,5.49623245 L11.4663759,2.48058165 C11.4196041,2.37123245 11.4820203,2.23059455 11.5913695,2.18366149 C11.716363,2.13688971 11.8413566,2.18366149 11.8881284,2.29301068 L13.1537082,5.30850021 C13.2006413,5.4178494 13.1382251,5.5584873 13.0287146,5.60525908 L13.0287146,5.60558165 Z" id="路径" fill="#F3F3F3"></path>
                <path d="M13.0287146,5.621226 C12.9038824,5.66799778 12.7632445,5.621226 12.7006671,5.49607117 L11.4350872,2.48074293 C11.3878318,2.35560127 11.4507282,2.21581543 11.5757251,2.16817842 C11.7007187,2.12140664 11.8413566,2.16817842 11.903934,2.29317197 L13.1693525,5.30866149 C13.2162856,5.41801068 13.1538695,5.55864859 13.0288759,5.621226 L13.0287146,5.621226 Z M11.6070138,2.19946712 C11.4976646,2.2462389 11.4507316,2.37139373 11.4976646,2.46509858 L12.7630832,5.48042682 C12.809855,5.58977601 12.9348485,5.63654779 13.0441977,5.58977601 C13.1535469,5.54300423 13.2006413,5.4178494 13.1535469,5.32414456 L11.8881284,2.30865504 C11.8255509,2.19930584 11.7162017,2.15237278 11.6068525,2.19930584 L11.6070138,2.19946712 Z" id="形状" fill="#FFFFFF"></path>
                <path d="M13.7943203,3.38698648 C13.6693267,3.43375826 13.5443332,3.37118084 13.4975614,3.24634858 L13.044359,1.87125826 C12.9975872,1.76190906 13.0756477,1.62127116 13.1849969,1.59014373 C13.2943461,1.55885503 13.434984,1.60578809 13.4817558,1.73078164 L13.9349582,3.10571067 C13.98173,3.21505987 13.9193138,3.34005342 13.7943203,3.3868252 L13.7943203,3.38698648 Z" id="路径" fill="#F3F3F3"></path>
                <path d="M13.8099646,3.40246955 C13.6848695,3.44961867 13.5451989,3.38674165 13.4975614,3.26183165 L13.044359,1.88690261 C12.9975872,1.76190906 13.0756477,1.62143244 13.2008025,1.57449938 C13.3258977,1.52735026 13.4655683,1.59022728 13.5132058,1.71513728 L13.9662469,3.09006632 C13.9975356,3.21505987 13.9349582,3.35569777 13.8099646,3.40246955 Z M13.2006413,1.60578809 C13.0912921,1.63691551 13.0287146,1.76190906 13.0600034,1.87125826 L13.5132058,3.24634858 C13.5443332,3.35569777 13.6693267,3.40246955 13.7788372,3.37118084 C13.8881864,3.34005342 13.9506025,3.21505987 13.9193138,3.10571067 L13.4662727,1.73062036 C13.4501664,1.67697954 13.4120161,1.63271468 13.3613395,1.60886867 C13.3106629,1.58502267 13.2522384,1.58384403 13.2006413,1.60562681 L13.2006413,1.60578809 Z" id="形状" fill="#FFFFFF"></path>
                <path d="M15.6380961,4.80868729 C15.5131025,4.839976 15.388109,4.76191551 15.3724646,4.63676068 L14.7162082,1.43386148 C14.6849195,1.30886793 14.7787856,1.19951873 14.9036179,1.16823003 C15.0287727,1.13694132 15.153605,1.21500181 15.1692493,1.34015664 L15.8256671,4.54321712 C15.8411501,4.65240504 15.7630896,4.77739859 15.6380961,4.80868729 L15.6380961,4.80868729 Z" id="路径" fill="#F3F3F3"></path>
                <path d="M15.6380961,4.82433165 C15.4974582,4.85562036 15.3724646,4.76175423 15.3411759,4.63676068 L14.6849195,1.43386148 C14.6536308,1.30886793 14.7474969,1.16823003 14.8724905,1.15258567 C15.0131284,1.12129697 15.1381219,1.21516309 15.1692493,1.34015664 L15.8256671,4.54321712 C15.8567945,4.66804939 15.778734,4.79320422 15.6380961,4.82433165 L15.6380961,4.82433165 Z M14.9037792,1.18387438 C14.7942687,1.19951873 14.7162082,1.30886793 14.7318525,1.43386148 L15.388109,4.63692197 C15.4037534,4.74610988 15.5285856,4.82433165 15.6380961,4.79304294 C15.7474453,4.77739859 15.8255058,4.66804939 15.8098614,4.54305584 L15.153605,1.33999536 C15.1224775,1.23080744 15.0131284,1.16823003 14.9036179,1.18387438 L14.9037792,1.18387438 Z" id="形状" fill="#FFFFFF"></path>
                <path d="M16.8254542,2.77750181 C16.7004606,2.79314616 16.5911114,2.71508567 16.5598227,2.59009212 L16.372413,1.15258567 C16.3567687,1.02759212 16.4504735,0.918242929 16.5756284,0.902598576 C16.7004606,0.886954222 16.8098098,0.965175991 16.8410985,1.09016954 L17.0285082,2.52751471 C17.0441526,2.65250826 16.9504477,2.76185745 16.8254542,2.77750181 L16.8254542,2.77750181 Z" id="路径" fill="#F3F3F3"></path>
                <path d="M16.8254542,2.79314616 C16.6848163,2.80879051 16.5598227,2.71508567 16.5441784,2.58993084 L16.3567687,1.15258567 C16.3411243,1.02759212 16.4348292,0.902598576 16.5754671,0.886954222 C16.716105,0.87147115 16.8410985,0.965175991 16.8567429,1.09016954 L17.0441526,2.52751471 C17.0597969,2.65250826 16.9660921,2.77750181 16.8254542,2.79314616 L16.8254542,2.79314616 Z M16.5911114,0.918242929 C16.4817622,0.933887283 16.3878961,1.04323648 16.4035405,1.15258567 L16.5911114,2.59009212 C16.6067558,2.69944132 16.716105,2.77750181 16.8254542,2.76185745 C16.9348034,2.74637438 17.0286695,2.6368639 17.0130251,2.52751471 L16.8254542,1.09016954 C16.8098098,0.980820345 16.7004606,0.902598576 16.5911114,0.918242929 Z" id="形状" fill="#FFFFFF"></path>
                <circle id="椭圆形" fill-opacity="0.2" fill="url(#linearGradient-3)" cx="18.5129477" cy="18.5110446" r="18.4990452"></circle>
            </g>
            <polygon id="路径" fill-opacity="0.05" fill="#000000" points="32.9202364 8.24957422 17.999071 17.8116613 17.9834267 17.8116613 17.9834267 17.8271444 17.9677823 17.8427888 8.65600485 33.2015122 22.3427178 22.1864355 22.3583621 22.1709525 22.3583621 22.1553081 32.9203977 8.2497355"></polygon>
            <polyline id="路径" fill="#CD151E" points="32.6389606 7.35897502 17.8897218 17.8427888 22.264496 22.1862743 32.6389606 7.35897502"></polyline>
            <polygon id="路径" fill="#FA5153" points="17.9053662 17.8116613 20.1084783 19.9833234 32.6389606 7.35897502"></polygon>
            <polygon id="路径" fill="#ACACAC" points="17.9053662 17.8116613 22.2801404 22.1549855 7.53090163 32.6389606 17.9053662 17.8115001"></polygon>
            <polygon id="路径" fill="#EEEEEE" points="7.53090163 32.6389606 20.108317 19.9833234 17.9052049 17.8115001"></polygon>
        </g>
    </g>
</svg>