<?xml version="1.0" encoding="UTF-8"?>
<svg width="40px" height="40px" viewBox="0 0 40 40" version="1.1" xmlns="http://www.w3.org/2000/svg" xmlns:xlink="http://www.w3.org/1999/xlink">
    <!-- Generator: Sketch 57.1 (83088) - https://sketch.com -->
    <title>browser-chrome</title>
    <desc>Created with Sketch.</desc>
    <g id="页面1" stroke="none" stroke-width="1" fill="none" fill-rule="evenodd">
        <g id="browser-chrome" fill-rule="nonzero">
            <path d="M38.437931,12.4758621 C40.5965517,17.8758621 40.3482759,24.3034483 37.1827586,29.7655172 C33.0034483,37.0137931 24.937931,40.6310345 17.1310345,39.4896552 L26.3482759,23.5344828 C28.3758621,20.0172414 27.1724138,15.5103448 23.6586207,13.4931034 C22.5137931,12.8172414 21.2448276,12.4758621 20,12.4758621 L38.437931,12.4758621 Z" id="路径" fill="#FED130"></path>
            <path d="M38.437931,12.4758621 L20.0034483,12.4758621 C17.4689655,12.4758621 15.0034483,13.8310345 13.6482759,16.1896552 C12.3206897,18.4724138 12.3758621,21.2206897 13.5724138,23.3965517 L4.42758621,7.56896552 C10.4241379,-0.0448275862 21.2758621,-2.32758621 29.9103448,2.65862069 C33.9413793,4.97931034 36.8448276,8.47586207 38.437931,12.4758621 Z" id="路径" fill="#E64A45"></path>
            <path d="M26.3482759,23.5448276 L17.1310345,39.5068966 C14.7137931,39.1586207 12.3275862,38.3517241 10.0862069,37.062069 C0.586206897,31.5758621 -2.66206897,19.4448276 2.81724138,9.95862069 C3.30689655,9.10344828 3.84482759,8.32068966 4.42413793,7.57586207 L13.5689655,23.4137931 L13.6448276,23.5448276 C14.2655172,24.6241379 15.1758621,25.5655172 16.3344828,26.2241379 C19.837931,28.2517241 24.3275862,27.0482759 26.3482759,23.5448276 Z" id="路径" fill="#51B84E"></path>
            <path d="M24.3275862,12.2448276 C28.5482759,14.6724138 29.9931034,20.0551724 27.5586207,24.2827586 C25.1275862,28.4931034 19.7344828,29.9413793 15.5241379,27.5034483 C14.1310345,26.7103448 13.037931,25.5793103 12.2931034,24.2827586 L12.2,24.1241379 C10.7655172,21.5068966 10.6965517,18.2241379 12.2931034,15.4793103 C13.9241379,12.6448276 16.8862069,11.0517241 19.9310345,11.0517241 C21.4241379,11.0551724 22.9482759,11.4344828 24.3275862,12.2448276 Z" id="路径" fill="#4793C6"></path>
            <path d="M19.9172414,29.3586207 C18.262069,29.3586207 16.6241379,28.9172414 15.1862069,28.0862069 C13.7448276,27.262069 12.5413793,26.062069 11.7103448,24.6172414 L11.6206897,24.462069 C10.0241379,21.5482759 10.062069,17.9827586 11.7137931,15.1413793 C13.4034483,12.2068966 16.5517241,10.3827586 19.9310345,10.3827586 C21.6034483,10.3827586 23.2413793,10.8275862 24.6655172,11.6689655 C26.8551724,12.9275862 28.4275862,14.9724138 29.0827586,17.4172414 C29.737931,19.862069 29.4034483,22.4206897 28.1344828,24.6206897 C26.4482759,27.5448276 23.3,29.3586207 19.9172414,29.3586207 Z M19.9310345,11.7241379 C17.0310345,11.7241379 14.3241379,13.2931034 12.8724138,15.8137931 C11.4551724,18.2551724 11.4241379,21.3137931 12.7862069,23.8034483 L12.8689655,23.9482759 C13.5827586,25.1896552 14.6137931,26.2172414 15.8517241,26.9241379 C17.0896552,27.6413793 18.4965517,28.0206897 19.9172414,28.0206897 C22.8206897,28.0206897 25.5241379,26.462069 26.9758621,23.9517241 C28.0655172,22.062069 28.3517241,19.8655172 27.7896552,17.7655172 C27.2241379,15.6655172 25.8758621,13.9137931 23.9931034,12.8275862 C22.7655172,12.1034483 21.3655172,11.7241379 19.9310345,11.7241379 Z" id="形状" fill="#FFFFFF"></path>
        </g>
    </g>
</svg>